<svg xmlns="http://www.w3.org/2000/svg" xmlns:xlink="http://www.w3.org/1999/xlink" width="68" height="68.001" viewBox="0 0 68 68.001"><defs><style>.a{fill:none;}.b{clip-path:url(#a);}.c{fill:#00d246;}</style><clipPath id="a"><rect class="a" width="68" height="68.001"/></clipPath></defs><g class="b"><path class="c" d="M15.06,68A15.079,15.079,0,0,1,0,52.94V15.058A15.076,15.076,0,0,1,15.06,0H52.942A15.074,15.074,0,0,1,68,15.058V52.94A15.077,15.077,0,0,1,52.942,68ZM3.7,15.058V52.94A11.368,11.368,0,0,0,15.06,64.3H52.942A11.368,11.368,0,0,0,64.3,52.94V15.058A11.367,11.367,0,0,0,52.942,3.7H15.06A11.368,11.368,0,0,0,3.7,15.058Zm41.61,34.253L34.021,26.043l-11.1,23.269H15.637L30.471,18.69H37.53L52.364,49.311Z"/></g></svg>