<svg xmlns="http://www.w3.org/2000/svg" xmlns:xlink="http://www.w3.org/1999/xlink" width="254.726" height="60.001" viewBox="0 0 254.726 60.001"><defs><style>.a{fill:none;}.b{clip-path:url(#a);}.c{clip-path:url(#b);}.d{fill:#00d246;}.e{clip-path:url(#c);}.f{fill:#243568;}</style><clipPath id="a"><rect class="a" width="254.726" height="60.001"/></clipPath><clipPath id="b"><rect class="a" width="60" height="60.001"/></clipPath><clipPath id="c"><rect class="a" width="182.789" height="28.412"/></clipPath></defs><g class="b"><g class="c"><path class="d" d="M13.288,60A13.3,13.3,0,0,1,0,46.712V13.287A13.3,13.3,0,0,1,13.288,0H46.713A13.3,13.3,0,0,1,60,13.287V46.712A13.3,13.3,0,0,1,46.713,60ZM3.269,13.287V46.712A10.031,10.031,0,0,0,13.288,56.733H46.713A10.03,10.03,0,0,0,56.731,46.712V13.287A10.03,10.03,0,0,0,46.713,3.268H13.288A10.03,10.03,0,0,0,3.269,13.287ZM39.983,43.51,30.018,22.979,20.224,43.51H13.8L26.886,16.491h6.228L46.2,43.51Z"/></g><g class="e" transform="translate(71.937 14.718)"><path class="f" d="M174.936,28.4c-4.859,0-8.639-1.309-8.639-7.668V7.681c0-6.358,3.777-7.668,8.639-7.668a35.207,35.207,0,0,1,7.1.524c.561.075.749.261.749.784v2.4a.75.75,0,0,1-.749.748h-7.629c-2.169,0-2.955.749-2.955,3.217v4.039h10.134a.749.749,0,0,1,.748.748v2.694a.749.749,0,0,1-.748.747H171.457v4.821c0,2.468.785,3.216,2.955,3.216h7.628a.751.751,0,0,1,.749.748v2.393c0,.524-.187.712-.749.785a35.256,35.256,0,0,1-6.127.536Q175.425,28.412,174.936,28.4Zm-75.016,0c-4.859,0-8.639-1.309-8.639-7.668V7.681c0-6.358,3.778-7.668,8.639-7.668a35.219,35.219,0,0,1,7.106.524c.561.075.748.261.748.784v2.4a.749.749,0,0,1-.748.748H99.4c-2.168,0-2.954.749-2.954,3.217v4.039h10.135a.749.749,0,0,1,.748.748v2.694a.75.75,0,0,1-.748.747H96.442v4.821c0,2.468.785,3.216,2.954,3.216h7.63a.75.75,0,0,1,.748.748v2.393c0,.524-.187.712-.748.785a35.27,35.27,0,0,1-6.127.536Q100.409,28.412,99.92,28.4Zm43.272-.673a.8.8,0,0,1-.711-.748V24.286a.71.71,0,0,1,.711-.711h.075c1.5.187,5.239.374,6.619.374,3.329,0,4.338-1.2,4.338-3.366,0-1.459-.711-2.206-3.179-3.665l-4.935-2.954c-3.477-2.058-4.412-4.227-4.412-6.845,0-4.113,2.393-7.1,9.349-7.1a41.7,41.7,0,0,1,7.179.673.759.759,0,0,1,.673.711V4.165a.638.638,0,0,1-.635.673h-.075c-2.469-.223-4.935-.373-7.365-.373-2.767,0-3.927.972-3.927,2.657,0,1.234.635,1.982,3.067,3.328l4.487,2.505c4.113,2.277,5.2,4.675,5.2,7.629,0,3.778-2.354,7.816-9.835,7.816h0q-.219,0-.439,0A28.574,28.574,0,0,1,143.192,27.726ZM51.633,28.4c-4.488,0-10.585-2.206-10.585-11.443v-5.5c0-9.387,6.1-11.443,10.585-11.443a28.35,28.35,0,0,1,5.909.6c.486.152.823.337.823.862V3.979c0,.449-.187.785-.749.785H57.54c-1.309-.112-3.852-.3-5.834-.3-3.141,0-5.423,1.684-5.423,6.994v5.5c0,5.2,2.282,6.994,5.423,6.994,1.982,0,4.526-.187,5.834-.3h.075c.561,0,.749.337.749.785V26.94c0,.523-.337.71-.823.86v0a28.244,28.244,0,0,1-5.784.6Zm33.125-.3,0,0H80.2c-.412,0-.561-.374-.749-.748l-5.385-9.985h-.526c-.973,0-2.468-.112-3.328-.152V27.353a.72.72,0,0,1-.711.748h-3.74a.751.751,0,0,1-.748-.748V1.623c0-.749.449-1.011,1.2-1.123a51.2,51.2,0,0,1,7.33-.486c5.76,0,10.771,2.057,10.771,8.451v.341a7.582,7.582,0,0,1-5.049,7.628L85.13,27.355a.5.5,0,0,1,.076.3.413.413,0,0,1-.411.451ZM70.21,4.619v8.41c.6.038,2.693.111,3.328.111,3.851,0,5.61-1.047,5.61-4.337V8.469c0-2.8-1.869-4-5.61-4C72.753,4.468,70.881,4.544,70.21,4.619ZM113.9,27.927a.636.636,0,0,1-.2-.462,1.65,1.65,0,0,0,.038-.187l6.133-23.449c.9-3.477,3.59-3.814,5.2-3.814s4.3.337,5.2,3.814L136.4,27.277a1.5,1.5,0,0,0,.037.187.641.641,0,0,1-.673.636H131.8a.8.8,0,0,1-.712-.636l-1.719-7.1h-8.6l-1.721,7.1a.791.791,0,0,1-.711.636h-4A.641.641,0,0,1,113.9,27.927ZM124.47,4.989l-2.7,11.106h6.582L125.668,4.989c-.112-.449-.228-.6-.6-.6S124.584,4.541,124.47,4.989ZM28.648,28.1a2,2,0,0,1-2.277-1.347L18.065,8.541c-.112-.224-.227-.3-.337-.3s-.187.075-.187.3V27.353a.72.72,0,0,1-.711.748H13.651a.751.751,0,0,1-.748-.748V1.809A1.5,1.5,0,0,1,14.4.314h4.039c.785,0,1.2.227,1.645,1.2L28.8,20.732c.076.187.187.3.3.3.076,0,.187-.112.187-.337V1.025a.687.687,0,0,1,.711-.711h3.217a.687.687,0,0,1,.711.711V26.6a1.5,1.5,0,0,1-1.5,1.5H28.648Zm-27.9,0A.751.751,0,0,1,0,27.353V1.025A.719.719,0,0,1,.748.314h3.7a.719.719,0,0,1,.749.711V27.353a.751.751,0,0,1-.749.748Z"/></g></g></svg>