<svg width="30" height="20" viewBox="0 0 30 20" fill="none" xmlns="http://www.w3.org/2000/svg">
<rect width="30" height="20" rx="4" fill="#40A036"/>
<path d="M26.6952 15C26.9103 14.9998 27.1166 14.915 27.2697 14.7639C27.4228 14.6129 27.5104 14.4077 27.5134 14.1926C27.5157 14.0905 27.4968 13.9891 27.458 13.8947C27.4192 13.8002 27.3614 13.7148 27.288 13.6438L27.3608 13.5686L27.288 13.6438L24.8776 11.2342L25.0701 11.1925C26.3665 10.9234 27.2346 10.1048 27.2393 8.5308C27.2361 6.69646 25.7052 5.68391 24.1708 5.67746H20.896V13.929L22.4562 13.7039V7.24705H24.2363C24.5942 7.228 24.9451 7.3509 25.213 7.58906C25.4808 7.82721 25.6439 8.16141 25.6668 8.51907C25.6721 9.23813 25.1326 9.6094 24.3713 9.79254C24.0577 9.84719 23.7732 10.0101 23.5674 10.2528C23.3615 10.4956 23.2473 10.8029 23.2446 11.1212C23.2516 11.5231 23.4058 11.9085 23.6778 12.2045C23.817 12.3789 23.9658 12.5455 24.1236 12.7034L26.2517 14.8679C26.3841 14.9532 26.5383 14.9986 26.6958 14.9988L26.6952 15ZM18.7213 5.36223C18.0571 5.36223 17.6779 5.83183 17.3847 6.45169L15.5242 10.4139L13.4486 6.87198L11.103 7.20451V14.1897C11.1066 14.4012 11.1932 14.6028 11.3442 14.7511C11.4951 14.8993 11.6983 14.9823 11.9098 14.9821C12.1205 14.9811 12.3224 14.8976 12.4721 14.7494C12.6219 14.6013 12.7076 14.4003 12.7108 14.1897V8.81873L15.5594 13.588L18.3247 7.95967V14.2892L19.9334 14.0632V6.58259C19.9301 6.26118 19.8013 5.95379 19.5746 5.72593C19.3479 5.49807 19.0412 5.36778 18.7198 5.36282L18.7213 5.36223ZM2.00088 9.67719C2.00528 10.9129 2.4979 12.0968 3.3714 12.9709C4.2449 13.845 5.42849 14.3385 6.66422 14.3437C7.29688 14.3432 7.92277 14.2134 8.5035 13.9624C9.08423 13.7114 9.60757 13.3444 10.0414 12.8839L10.0802 12.8469C10.1075 12.8132 10.131 12.7766 10.1503 12.7377C10.1559 12.7292 10.1633 12.7163 10.1732 12.7008L10.1756 12.6923L10.1797 12.6884L10.2202 12.7066L10.1856 12.6773C10.2377 12.5829 10.273 12.4803 10.29 12.3738C10.2942 12.3445 10.2965 12.3151 10.2986 12.2858C10.2986 12.269 10.3003 12.2511 10.3003 12.2376C10.2958 12.1029 10.2594 11.9712 10.194 11.8534C10.1286 11.7355 10.0362 11.6348 9.92434 11.5597C9.79027 11.4746 9.63494 11.4292 9.47618 11.4285C9.28277 11.4279 9.09547 11.4963 8.94788 11.6213L8.94231 11.626C8.92675 11.6442 8.91296 11.6574 8.89652 11.6765C8.84281 11.7302 8.74156 11.8311 8.70458 11.8693C8.15031 12.3857 7.42087 12.6727 6.66332 12.6726C5.86367 12.6704 5.09751 12.3513 4.53273 11.7852C3.96795 11.2191 3.65062 10.4522 3.65031 9.65254C3.65148 8.85367 3.96925 8.08781 4.534 7.52278C5.09876 6.95775 5.86444 6.6396 6.66332 6.63805C7.03247 6.62485 7.40047 6.68651 7.74517 6.81926C8.08987 6.95202 8.40415 7.15313 8.66908 7.41053L10.2959 7.13583C10.2959 7.13583 9.32562 4.96779 6.51747 5.00036C3.94822 5.00359 2.00851 7.10031 2 9.67425L2.00088 9.67719ZM10.1788 12.6864C10.1817 12.6817 10.185 12.6826 10.185 12.6826L10.1788 12.6864Z" fill="white"/>
</svg>
