<svg width="30" height="20" viewBox="0 0 30 20" fill="none" xmlns="http://www.w3.org/2000/svg">
<rect x="0.5" y="0.5" width="29" height="19" rx="3.5" fill="white" stroke="#007DDC"/>
<path d="M26.1441 15.0031C26.1429 15.9404 25.7699 16.839 25.1071 17.5018C24.4443 18.1646 23.5456 18.5374 22.6083 18.5386H3.37158V4.53552C3.37279 3.59821 3.74567 2.69964 4.40845 2.03687C5.07122 1.37409 5.9698 1.00121 6.9071 1L26.1441 1V15.0031Z" fill="white"/>
<path d="M19.8799 11.4104H21.3416C21.3833 11.4104 21.4806 11.3964 21.5226 11.3964C21.6711 11.3643 21.8036 11.2814 21.8975 11.1619C21.9913 11.0424 22.0405 10.894 22.0365 10.7421C22.036 10.5914 21.9852 10.4452 21.8921 10.3266C21.799 10.2081 21.6689 10.1241 21.5226 10.088C21.4631 10.0759 21.4023 10.0712 21.3416 10.0741H19.8799V11.4104Z" fill="url(#paint0_linear)"/>
<path d="M21.1747 2.18286C20.5028 2.18294 19.8584 2.44988 19.3833 2.92497C18.9082 3.40007 18.6413 4.04442 18.6412 4.71631V7.3474H22.2184C22.3021 7.34474 22.3859 7.34942 22.4688 7.36138C23.2762 7.40307 23.8749 7.82074 23.8749 8.54446C23.8749 9.11544 23.4712 9.6022 22.7195 9.69984V9.72839C23.5408 9.78549 24.1672 10.2423 24.1672 10.9534C24.1672 11.7188 23.4712 12.2202 22.5525 12.2202H18.627V17.3704H22.3435C23.0154 17.3703 23.6597 17.1034 24.1348 16.6283C24.6099 16.1532 24.8768 15.5089 24.8769 14.837V2.18286H21.1747Z" fill="url(#paint1_linear)"/>
<path d="M21.8565 8.71142C21.8596 8.56577 21.8089 8.4241 21.714 8.31349C21.6192 8.20288 21.487 8.1311 21.3426 8.11189C21.314 8.11189 21.2449 8.0979 21.2033 8.0979H19.8809V9.32294H21.2033C21.2502 9.32679 21.2974 9.32205 21.3426 9.30895C21.487 9.28974 21.6192 9.21797 21.714 9.10736C21.8089 8.99675 21.8596 8.85507 21.8565 8.70942V8.71142Z" fill="url(#paint2_linear)"/>
<path d="M7.17195 2.18286C6.50006 2.18294 5.85571 2.44988 5.38061 2.92497C4.90552 3.40007 4.63858 4.04442 4.6385 4.71631V10.9663C5.31401 11.3205 6.06149 11.5158 6.82394 11.5373C7.70096 11.5373 8.17402 11.0082 8.17402 10.2845V7.33341H10.3455V10.2703C10.3455 11.4122 9.63574 12.3443 7.22762 12.3443C6.35007 12.345 5.47578 12.2375 4.62451 12.0243V17.3553H8.34075C9.01264 17.3552 9.65699 17.0883 10.1321 16.6132C10.6072 16.1381 10.8741 15.4937 10.8742 14.8218V2.18286H7.17195Z" fill="url(#paint3_linear)"/>
<path d="M14.1731 2.18286C13.5012 2.18294 12.8569 2.44988 12.3818 2.92497C11.9067 3.40007 11.6397 4.04442 11.6396 4.71631V8.02801C12.28 7.48557 13.3934 7.13699 15.1892 7.22064C15.8604 7.26329 16.5266 7.36581 17.1796 7.52697V8.5987C16.5853 8.28073 15.931 8.09098 15.2588 8.04171C13.8947 7.94436 13.0734 8.61269 13.0734 9.78178C13.0734 10.9649 13.8947 11.6332 15.2588 11.5218C15.9298 11.4661 16.5828 11.2768 17.1796 10.9651V12.0369C16.5269 12.1995 15.8606 12.302 15.1892 12.3432C13.3934 12.4266 12.28 12.0786 11.6396 11.5358V17.3833H15.3562C16.0281 17.3832 16.6724 17.1162 17.1475 16.6412C17.6226 16.1661 17.8895 15.5217 17.8896 14.8498V2.18286H14.1731Z" fill="url(#paint4_linear)"/>
<defs>
<linearGradient id="paint0_linear" x1="-7.50098" y1="13.8334" x2="-7.24432" y2="13.8334" gradientUnits="userSpaceOnUse">
<stop stop-color="#007940"/>
<stop offset="0.228" stop-color="#00873F"/>
<stop offset="0.743" stop-color="#40A737"/>
<stop offset="1" stop-color="#5CB531"/>
</linearGradient>
<linearGradient id="paint1_linear" x1="-7.76667" y1="13.528" x2="-7.67917" y2="13.528" gradientUnits="userSpaceOnUse">
<stop stop-color="#007940"/>
<stop offset="0.228" stop-color="#00873F"/>
<stop offset="0.743" stop-color="#40A737"/>
<stop offset="1" stop-color="#5CB531"/>
</linearGradient>
<linearGradient id="paint2_linear" x1="-7.46129" y1="13.869" x2="-7.17876" y2="13.869" gradientUnits="userSpaceOnUse">
<stop stop-color="#007940"/>
<stop offset="0.228" stop-color="#00873F"/>
<stop offset="0.743" stop-color="#40A737"/>
<stop offset="1" stop-color="#5CB531"/>
</linearGradient>
<linearGradient id="paint3_linear" x1="-7.76236" y1="13.5318" x2="-7.67487" y2="13.5318" gradientUnits="userSpaceOnUse">
<stop stop-color="#1F286F"/>
<stop offset="0.475" stop-color="#004E94"/>
<stop offset="0.826" stop-color="#0066B1"/>
<stop offset="1" stop-color="#006FBC"/>
</linearGradient>
<linearGradient id="paint4_linear" x1="-7.76652" y1="13.5376" x2="-7.67902" y2="13.5376" gradientUnits="userSpaceOnUse">
<stop stop-color="#6C2C2F"/>
<stop offset="0.174" stop-color="#882730"/>
<stop offset="0.573" stop-color="#BE1833"/>
<stop offset="0.858" stop-color="#DC0436"/>
<stop offset="1" stop-color="#E60039"/>
</linearGradient>
</defs>
</svg>
