<svg width="30" height="20" viewBox="0 0 30 20" fill="none" xmlns="http://www.w3.org/2000/svg">
<rect width="30" height="20" rx="4" fill="#003772"/>
<path d="M5.85487 5.39355V7.65267L4.63252 5.69736L5.27681 7.87354L3.54375 6.27569L4.78525 8.21129L2.66107 7.09131L4.39468 8.68671L2.03347 8.09223L4.15711 9.2144L1.70996 9.19825L4.07117 9.79273L1.70996 10.3503H4.15711L2.03347 11.4724L4.39468 10.8779L2.66107 12.4747L4.7847 11.355L3.54375 13.2906L5.27736 11.6952L4.63307 13.8684L5.85514 11.9136V14.1547L6.46631 12.0505C6.12714 10.5579 6.12714 9.00834 6.46631 7.51582L5.85487 5.39355Z" fill="#F1B800"/>
<path d="M7.28157 5.54558L7.16279 5.83598C6.93826 6.37994 6.76152 6.94242 6.63455 7.51704C6.47147 8.26444 6.3917 9.02761 6.39671 9.79257C6.39359 10.552 6.47335 11.3095 6.63455 12.0517C6.76191 12.6262 6.93865 13.1886 7.16279 13.7328L7.28157 14.0204C7.5169 14.5521 7.79517 15.0637 8.11362 15.5501C7.77153 14.8276 7.49313 14.0767 7.28157 13.3058C6.64749 10.9992 6.64749 8.56431 7.28157 6.25775C7.49501 5.48313 7.77334 4.72787 8.11362 4C7.80048 4.49516 7.52236 5.01161 7.2813 5.54558H7.28157Z" fill="white"/>
<path d="M9.59448 8.00111H9V12.6214H9.59448V9.71802C9.5675 9.32504 9.6889 8.93624 9.93469 8.62842C10.0305 8.52776 10.1466 8.4486 10.2753 8.39618C10.4041 8.34376 10.5424 8.31928 10.6813 8.32434C11.3034 8.32434 11.6149 8.68106 11.616 9.39451V12.6214H12.2105V9.36139C12.2301 9.02347 12.1534 8.68691 11.9893 8.39085C11.7737 8.06241 11.3884 7.89819 10.8335 7.89819C10.5931 7.9013 10.3568 7.9616 10.1443 8.07411C9.93183 8.18662 9.74916 8.34811 9.61145 8.54522H9.59475V8.00111H9.59448Z" fill="white"/>
<path d="M13.5676 10.0059C13.4984 10.028 13.4308 10.0502 13.3657 10.0751C13.1133 10.1728 12.8992 10.3494 12.7552 10.5786C12.6112 10.8077 12.545 11.0772 12.5665 11.347C12.5495 11.7069 12.6712 12.0596 12.9067 12.3323C13.0371 12.4609 13.1936 12.5599 13.3657 12.6227C13.5512 12.6827 13.7454 12.7116 13.9404 12.7084C14.2148 12.726 14.4892 12.6745 14.7385 12.5585C14.9878 12.4426 15.204 12.2659 15.3672 12.0447H15.3867V12.6227H16.0142L15.945 9.12483C15.9651 8.90942 15.919 8.69301 15.8129 8.50448C15.7068 8.31595 15.5457 8.16428 15.3511 8.06971C15.0454 7.94078 14.7146 7.88222 14.3833 7.89838C14.031 7.88647 13.6812 7.96248 13.3657 8.11953C13.3238 8.13845 13.284 8.16156 13.2469 8.1885C13.0808 8.28555 12.9431 8.42445 12.8476 8.59135C12.752 8.75824 12.7019 8.94728 12.7022 9.13961H13.3465C13.3455 9.07638 13.3521 9.01327 13.3659 8.95157C13.3802 8.8664 13.4115 8.78498 13.4581 8.71226C13.5047 8.63953 13.5655 8.577 13.6369 8.52843C13.8387 8.38216 14.0848 8.30995 14.3337 8.32398C14.4812 8.30694 14.6305 8.32568 14.7692 8.37861C14.9078 8.43154 15.0316 8.51711 15.1302 8.62806C15.2958 8.86009 15.3741 9.14313 15.3513 9.42726V9.81701L13.5679 10.005L13.5676 10.0059ZM15.3511 11.0925C15.352 11.2474 15.319 11.4006 15.2545 11.5415C15.19 11.6824 15.0956 11.8075 14.9777 11.9081C14.8616 12.0229 14.7239 12.1135 14.5724 12.1746C14.421 12.2357 14.2589 12.266 14.0956 12.2639C13.9693 12.2718 13.8427 12.2515 13.7251 12.2047C13.6075 12.1578 13.5018 12.0855 13.4155 11.9929C13.3959 11.9722 13.3792 11.949 13.3657 11.924C13.2453 11.7435 13.1853 11.5295 13.1943 11.3128C13.1865 11.1117 13.2469 10.9139 13.3657 10.7514C13.5107 10.5576 13.7226 10.4246 13.9601 10.3781L15.3511 10.2593V11.0916V11.0925Z" fill="white"/>
<path d="M17.6269 7H17.0324V8.00092H16.2168V8.42679H17.0324V11.7366C17.0233 11.8564 17.0382 11.9768 17.0761 12.0908C17.1141 12.2048 17.1744 12.31 17.2536 12.4004C17.4951 12.5723 17.7908 12.6509 18.0859 12.6215L18.6472 12.6048V12.1291L18.1718 12.1622C17.9449 12.1622 17.7985 12.1124 17.7293 12.0101C17.643 11.8186 17.6077 11.608 17.6269 11.3989V8.42679H18.6472V8.00092H17.6269V7Z" fill="white"/>
<path d="M19.7999 7.98438H19.1392V12.6214H19.8001V7.98438H19.7999Z" fill="white"/>
<path d="M19.1392 7V7.67741H19.8001V7H19.1392Z" fill="white"/>
<path d="M20.8697 8.00098H20.209L21.7214 12.6213H22.3988L23.8946 8.00098H23.3333L22.0945 11.908H22.0751L20.8708 8.00098H20.8697Z" fill="white"/>
<path d="M26.5443 8.62884C26.6988 8.86537 26.7708 9.14635 26.749 9.42804V9.81779L24.9656 10.0058C24.6639 10.0692 24.3956 10.2403 24.2109 10.4871C24.0262 10.7339 23.9377 11.0396 23.9619 11.3469C23.9475 11.5321 23.9739 11.7182 24.0393 11.8921C24.1047 12.0659 24.2075 12.2233 24.3404 12.353C24.4734 12.4828 24.6332 12.5818 24.8085 12.643C24.9839 12.7042 25.1706 12.7261 25.3554 12.7072C25.6275 12.726 25.8999 12.6749 26.1467 12.5588C26.3935 12.4426 26.6065 12.2652 26.7655 12.0435H26.7986V12.6216H27.4097C27.3766 12.2592 27.3599 11.8667 27.3599 11.449V9.12259C27.3599 8.30697 26.8327 7.8987 25.7782 7.89779C25.3737 7.87985 24.9729 7.98081 24.6251 8.18818C24.4632 8.28843 24.3296 8.42847 24.2372 8.59496C24.1447 8.76145 24.0964 8.94884 24.0969 9.13929H24.7439C24.7363 9.0214 24.7587 8.90351 24.809 8.79663C24.8593 8.68975 24.9359 8.59737 25.0316 8.52812C25.2389 8.38034 25.4907 8.30817 25.7448 8.32366C25.8925 8.30898 26.0416 8.32881 26.1802 8.38158C26.3189 8.43435 26.4435 8.51862 26.544 8.62774L26.5443 8.62884ZM25.5073 12.2649C25.3786 12.2712 25.2501 12.2503 25.13 12.2036C25.01 12.1569 24.9011 12.0855 24.8104 11.994C24.657 11.8015 24.5792 11.5596 24.5915 11.3138C24.581 11.0914 24.6532 10.8729 24.794 10.7004C24.9349 10.5279 25.1345 10.4135 25.3545 10.3791L26.7482 10.2604V11.0927C26.7499 11.246 26.719 11.398 26.6577 11.5386C26.5964 11.6792 26.5059 11.8052 26.3924 11.9083C26.2756 12.0229 26.1373 12.1133 25.9854 12.1744C25.8336 12.2355 25.6712 12.2659 25.5075 12.2641L25.5073 12.2649Z" fill="white"/>
</svg>
