<svg width="30" height="20" viewBox="0 0 30 20" fill="none" xmlns="http://www.w3.org/2000/svg">
<rect width="30" height="20" rx="4" fill="#184185"/>
<path d="M0 4C0 1.79086 1.79086 0 4 0H26C28.2091 0 30 1.79086 30 4V10H0V4Z" fill="#FDC509"/>
<path d="M27.9896 13.8326L28 10.1102H25.7319L24.9308 7H23.4118L21.5494 10.1102H21.1333L21.5078 7.98164L22.2673 8.0108L22.4338 7H19.5414L19.3645 8.0108L20.1241 7.98164L19.7495 10.1102H18.6467L18.8027 9.26458H17.5958L17.6479 8.96328H18.7091L18.8547 8.15659H17.7935L17.8455 7.85529H19.0108L19.1565 7.00972H16.6074L16.0664 10.1102H14.5578C15.1092 9.9838 15.5254 9.59503 15.6086 9.09935L15.9832 7.00972H14.6411L14.3185 8.85637C14.2977 8.99244 14.2353 9.19654 14.0168 9.19654C13.7983 9.19654 13.6214 9.00216 13.6214 9.00216L13.07 9.83801C13.2365 9.96436 13.4654 10.0616 13.7047 10.1199H13.122L12.477 9.11879C12.4146 9.0216 12.3417 8.98272 12.2793 8.93413V8.91469C12.8203 8.77862 13.07 8.57451 13.1533 8.10799C13.2885 7.32073 12.6226 7.02916 11.7695 7.02916H10.1048L9.56383 10.1102H9.2413L8.44018 7.00972H6.92117L5.05882 10.1199H4.64266L5.01721 8.00108L5.76631 8.03024L5.94318 7.01944H3.05082L2.87395 8.03024L3.63345 8.00108L3.2589 10.1199L2.0104 10.1102L2 13.8326C2 14.4449 3.41497 15.9903 4.06002 16L26.8035 14.9406C27.459 14.9406 27.9896 14.4449 27.9896 13.8326ZM23.9736 8.03996H24.0256C24.0256 8.17603 24.0256 8.3121 24.0464 8.43844L24.1088 8.98272H23.5574L23.9736 8.03996ZM23.1725 9.72138H24.2129L24.2753 10.1102H22.9956L23.1725 9.72138ZM11.3013 7.86501H11.4054C11.6447 7.86501 11.8423 7.89417 11.8007 8.12743C11.7591 8.36069 11.5302 8.38985 11.3013 8.38985H11.2077L11.3013 7.86501ZM11.0828 9.12851H11.1036L11.5302 10.1102H10.906L11.0828 9.12851ZM7.48299 8.04968H7.53501C7.53501 8.18575 7.53501 8.32181 7.55582 8.44816L7.61825 8.99244H7.06683L7.48299 8.04968ZM6.69228 9.7311H7.73269L7.78471 10.1102H6.51541L6.69228 9.7311Z" fill="#184185"/>
<path d="M2.89446 12.9286L2.94648 12.9675C3.13375 13.1133 3.36264 13.2299 3.63315 13.2202C3.7476 13.2202 3.93487 13.1716 3.94528 13.0452C3.96609 12.9091 3.81002 12.8994 3.71639 12.8897L3.48749 12.8508C3.05052 12.7828 2.70718 12.5495 2.76961 12.0927C2.86324 11.4027 3.60194 11.0042 4.29902 10.9945C4.66317 10.9847 4.97529 11.0625 5.26661 11.2374L4.85044 11.9858C4.67357 11.8595 4.46549 11.772 4.21579 11.772C4.11174 11.772 3.96609 11.8109 3.94528 11.9275C3.93487 12.0344 4.07013 12.0539 4.15336 12.0636L4.40306 12.1122C4.88165 12.2094 5.19378 12.4426 5.13135 12.9383C5.02731 13.6381 4.29902 13.988 3.61234 13.9977C3.21699 13.9977 2.7592 13.9102 2.42627 13.745L2.89446 12.9286Z" fill="#FDC509"/>
<path d="M5.75586 11.0142L6.86911 11.0045L6.72345 11.9861L7.43093 11.9764L7.56619 10.9851L8.67943 10.9753L8.27367 13.8911L7.16042 13.9105L7.30608 12.89L6.5986 12.8997L6.45294 13.9203L5.3501 13.9397L5.75586 11.0142Z" fill="#FDC509"/>
<path d="M10.6772 11.7916C11.0414 11.7916 11.2286 12.054 11.1766 12.3553C11.1246 12.6858 10.8437 12.919 10.5003 12.9093C10.1466 12.9093 9.93852 12.6858 9.99054 12.3553C10.0426 12.054 10.3027 11.7916 10.6772 11.7916ZM10.8229 10.8391C9.86569 10.8391 8.98133 11.432 8.83567 12.3456C8.69002 13.2786 9.3871 13.8424 10.3547 13.8424C11.3223 13.8424 12.1962 13.2786 12.3419 12.3456C12.4771 11.432 11.7801 10.8391 10.8229 10.8391Z" fill="#FDC509"/>
<path d="M13.9647 11.675H14.0688C14.2561 11.675 14.4849 11.6847 14.4537 11.9179C14.4121 12.1512 14.1936 12.1804 13.9855 12.1901H13.8711L13.9647 11.675ZM12.5186 13.7937H13.6318L13.7671 12.919H14.3601C15.0052 12.919 15.4629 12.5497 15.5566 11.9568C15.671 11.2376 15.1716 10.8877 14.4329 10.8877H12.9763L12.5186 13.7937Z" fill="#FDC509"/>
<path d="M17.0238 11.6749H17.1279C17.3151 11.6749 17.5544 11.6846 17.5128 11.9179C17.4816 12.1511 17.2527 12.1803 17.055 12.1803H16.9406L17.0238 11.6749ZM15.5776 13.7937H16.6909L16.8261 12.919H17.4192C18.0642 12.919 18.522 12.5399 18.6156 11.947C18.7301 11.2278 18.2411 10.8779 17.492 10.8779H16.0354L15.5776 13.7937Z" fill="#FDC509"/>
<path d="M19.1043 10.8779H20.2591L19.8013 13.7937H18.6465L19.1043 10.8779Z" fill="#FDC509"/>
<path d="M20.7693 10.8779H21.8721L22.6525 12.4913H22.6837C22.6733 12.2483 22.6629 11.9956 22.7045 11.7527L22.8397 10.8779H23.9322L23.4848 13.7937H22.382L21.612 12.2678H21.5808C21.5912 12.4719 21.5912 12.6565 21.56 12.8509L21.4144 13.7937H20.3115L20.7693 10.8779Z" fill="#FDC509"/>
<path d="M27.6151 12.0735C27.5319 12.5498 27.4695 12.9483 27.0325 13.3176C26.6475 13.6578 26.0961 13.8327 25.6071 13.8327C24.6395 13.8327 23.9425 13.2884 24.0881 12.3457C24.2338 11.3932 25.0869 10.8197 26.0857 10.8295C26.6371 10.8295 27.355 11.0822 27.5215 11.5778L26.3874 11.9375C26.325 11.7917 26.1689 11.7139 25.9817 11.7139C25.5759 11.7139 25.295 12.0347 25.2326 12.3943C25.1806 12.715 25.3574 13.0163 25.732 13.0163C25.9088 13.0163 26.1585 12.9385 26.2418 12.7636H25.7216L25.8256 12.0735H27.6151Z" fill="#FDC509"/>
</svg>
