<svg width="30" height="20" viewBox="0 0 30 20" fill="none" xmlns="http://www.w3.org/2000/svg">
<rect width="30" height="20" rx="4" fill="#1A1E71"/>
<path d="M12.8597 14.2163H10.7573L12.0716 6.14404H14.1737L12.8597 14.2163Z" fill="white"/>
<path d="M9.29685 6.14431L7.29336 11.6964L7.05597 10.5007L6.3487 6.87074C6.3487 6.87074 6.26355 6.14404 5.35202 6.14404H2.03888L2 6.28095C2.77567 6.47488 3.51721 6.78604 4.19899 7.2037L6.02451 14.2163H8.21502L11.5588 6.14431H9.29685Z" fill="white"/>
<path d="M25.0704 14.2163H26.9999L25.3176 6.14422H23.6285C23.4236 6.12841 23.2191 6.17829 23.0446 6.28662C22.87 6.39494 22.7345 6.55607 22.6578 6.74662L19.5234 14.2173H21.7139L22.152 13.0186H24.8239L25.0704 14.2163ZM22.758 11.3612L23.862 8.33966L24.4836 11.3612H22.758Z" fill="white"/>
<path d="M19.9604 8.08536L20.2602 6.35185C19.6531 6.13491 19.0153 6.01614 18.3709 6C17.3279 6 14.851 6.4559 14.851 8.67215C14.851 10.7578 17.7581 10.7835 17.7581 11.8785C17.7581 12.9735 15.1506 12.7783 14.2897 12.0874L13.9775 13.8995C14.7283 14.2141 15.5362 14.3694 16.3501 14.3557C17.7838 14.3557 19.948 13.6128 19.948 11.5921C19.948 9.49331 17.0147 9.29754 17.0147 8.38519C17.0147 7.47284 19.0614 7.58976 19.9604 8.08536Z" fill="white"/>
<path d="M7.05597 10.5009L6.3487 6.87099C6.3487 6.87099 6.26355 6.14429 5.35202 6.14429H2.03888L2 6.28119C3.14116 6.57181 4.2058 7.10623 5.12065 7.84768C5.9893 8.54515 6.65716 9.46076 7.05597 10.5009Z" fill="white"/>
</svg>
