<svg width="30" height="20" viewBox="0 0 30 20" fill="none" xmlns="http://www.w3.org/2000/svg">
<rect width="30" height="20" rx="4" fill="#006FCF"/>
<path d="M4.93431 7L2 13.4917H5.51278L5.94826 12.4566H6.94368L7.37916 13.4917H11.2457V12.7017L11.5903 13.4917H13.5904L13.9349 12.685V13.4917H21.9764L22.9542 12.4835L23.8697 13.4917L28 13.5L25.0564 10.2639L28 7H23.9338L22.982 7.98953L22.0952 7H13.3472L12.596 8.67555L11.8272 7H8.32172V7.76309L7.93177 7C7.93177 7 4.93431 7 4.93431 7ZM5.61401 7.92182H7.32631L9.27263 12.3238V7.92182H11.1484L12.6517 11.0781L14.0372 7.92182H15.9036V12.58H14.7679L14.7586 8.92988L13.103 12.58H12.0871L10.4221 8.92988V12.58H8.08585L7.64294 11.5357H5.25003L4.80803 12.5791H3.55627L5.61401 7.92182ZM16.9426 7.92182H21.5603L22.9727 9.44699L24.4306 7.92182H25.843L23.697 10.263L25.843 12.5773H24.3665L22.9542 11.0344L21.4888 12.5773H16.9426V7.92182ZM6.44699 8.70996L5.65862 10.5703H7.23444L6.44699 8.70996ZM18.0829 8.8863V9.73665H20.6021V10.6844H18.0829V11.6128H20.9085L22.2215 10.2454L20.9643 8.88549H18.0829V8.8863Z" fill="white"/>
</svg>
