<svg width="30" height="20" viewBox="0 0 30 20" fill="none" xmlns="http://www.w3.org/2000/svg">
<rect width="30" height="20" rx="4" fill="#006093"/>
<path fill-rule="evenodd" clip-rule="evenodd" d="M14.4935 15.2756C15.333 15.2756 15.757 15.1483 15.757 15.7032C15.757 16.398 15.6551 16.2926 14.494 16.2926L14.4935 15.2756ZM14.5021 13.7171C15.4686 13.7171 15.6173 13.6037 15.617 14.2173C15.617 14.8162 15.3199 14.7006 14.4929 14.7006L14.5021 13.7171ZM13.7212 16.879L15.3986 16.8879C16.0066 16.8879 16.5212 16.6508 16.5212 16.0392C16.5212 15.5693 16.5966 15.088 15.9757 14.9293C16.3673 14.5992 16.3876 14.7773 16.3876 13.9622C16.3876 13.3739 16.0452 13.1622 15.4805 13.1258C14.8946 13.0915 14.3071 13.0915 13.7212 13.1258V16.879Z" fill="white"/>
<path fill-rule="evenodd" clip-rule="evenodd" d="M11.6039 13.7468L12.148 15.4858L11.0562 15.4716L11.6039 13.7468ZM9.79346 16.8778L10.601 16.8895L10.8542 16.1128L12.3131 16.1102C12.4435 16.3534 12.5379 16.6142 12.5935 16.8845L13.4027 16.8881L12.1347 13.1251C10.855 13.0598 11.0762 13.047 10.5613 14.598C10.3862 15.1268 9.901 16.4657 9.79346 16.8778Z" fill="white"/>
<path fill-rule="evenodd" clip-rule="evenodd" d="M18.5021 13.7481L19.0473 15.4849L17.9499 15.4813L18.5021 13.7481ZM16.6919 16.8883L17.4483 16.89C17.5278 16.8711 17.5792 16.6304 17.6167 16.5179C17.6601 16.3881 17.7148 16.243 17.7454 16.1116H19.2538L19.4975 16.8897H20.2998L19.348 14.056C19.2924 13.8893 19.2396 13.7367 19.1846 13.5739C19.1424 13.4494 19.104 13.1848 18.9926 13.1204C18.4535 13.1204 18.0269 13.0456 17.839 13.4816L16.6919 16.8883Z" fill="white"/>
<path fill-rule="evenodd" clip-rule="evenodd" d="M7 14.074V15.7861C7 16.5906 7.59664 16.8807 8.38197 16.8807L9.46353 16.871C9.46353 16.1874 9.3079 16.2279 8.66263 16.2285C7.57691 16.2285 7.77116 16.0384 7.77116 14.2143C7.77116 13.8086 7.97707 13.6585 8.38252 13.6585H9.49132C9.538 12.8896 9.30235 13.0063 8.32639 13.0063C7.58941 13.0063 7.00056 13.3195 7.00056 14.0732L7 14.074Z" fill="white"/>
<path fill-rule="evenodd" clip-rule="evenodd" d="M20.5641 16.8882C20.9509 16.8882 22.7653 16.9351 22.9926 16.8698C22.9926 16.7542 23.0093 16.4107 22.9926 16.3221C22.9712 16.1987 22.8181 16.2496 22.4996 16.2496H21.3353V13.0777C20.3368 12.8659 20.563 13.7599 20.563 14.58L20.5641 16.8882Z" fill="white"/>
<path fill-rule="evenodd" clip-rule="evenodd" d="M15.4013 4.35069C15.4843 4.54259 17.4178 6.36455 17.5267 6.52922C17.7849 6.9183 17.2461 7.28716 17.0823 7.45139C16.594 7.94059 16.1127 8.38719 15.6169 8.86936C15.4325 9.04852 15.3974 9.00901 15.3974 9.36075C15.3996 9.83414 15.3693 11.2455 15.4185 11.5182L19.5191 7.49444C19.6947 7.3302 19.9815 7.14665 19.9991 6.78656C20.021 6.34303 19.3961 5.9522 18.9667 5.48628C18.2588 4.71517 17.3476 3.9155 16.5918 3.15887C16.3898 2.95643 16.2194 2.76365 16.0267 2.57087C15.8314 2.36698 15.6228 2.17627 15.4022 2L15.4013 4.35069Z" fill="white"/>
<path fill-rule="evenodd" clip-rule="evenodd" d="M14.5848 11.5186C14.6288 11.1502 14.6042 9.6659 14.6037 9.18636C14.6037 8.9848 13.137 7.66784 12.9008 7.42983C12.7559 7.28404 12.4032 7.02715 12.412 6.74743C12.4199 6.49097 13.1875 5.84105 13.4923 5.50204C13.6798 5.29389 13.8682 5.12132 14.0667 4.92283C14.3697 4.61982 14.6042 4.48984 14.6042 4.26413V2.00171C14.4004 2.12379 12.1538 4.4332 11.6567 4.86442C11.2101 5.25174 10.9488 5.61885 10.4847 6.0413C9.60639 6.84228 9.99722 7.0614 11.052 8.03979C11.8499 8.77885 12.625 9.66458 13.4172 10.3764C13.6368 10.5749 13.7913 10.7431 14.003 10.9447C14.2115 11.1222 14.4068 11.3146 14.5875 11.5204L14.5848 11.5186Z" fill="white"/>
</svg>
