<svg width="30" height="20" viewBox="0 0 30 20" fill="none" xmlns="http://www.w3.org/2000/svg">
<rect width="30" height="20" rx="4" fill="#4DE07E"/>
<path d="M13.9602 17.5455H15.3011L15.3125 16.233C17.7727 16.0455 19.1989 14.7386 19.2045 12.767C19.1989 10.8295 17.7386 9.80114 15.7159 9.34659L15.3807 9.26705L15.4034 6.42614C16.1591 6.60227 16.6193 7.08523 16.6875 7.80114H19.0455C19.017 5.92045 17.6136 4.57386 15.4261 4.33523L15.4375 3H14.0966L14.0852 4.32386C11.8636 4.53977 10.2955 5.88068 10.3068 7.81818C10.3011 9.53409 11.5114 10.517 13.4773 10.9886L14.0227 11.125L13.9943 14.1307C13.0682 13.9545 12.4432 13.3864 12.3807 12.4375H10C10.0568 14.733 11.5625 16.017 13.9716 16.2273L13.9602 17.5455ZM15.3352 14.1307L15.358 11.4773C16.2386 11.7557 16.7159 12.1136 16.7216 12.7614C16.7159 13.4489 16.1932 13.9602 15.3352 14.1307ZM14.0398 8.92045C13.3295 8.67614 12.8182 8.30682 12.8295 7.65341C12.8295 7.04545 13.2614 6.57386 14.0625 6.40909L14.0398 8.92045Z" fill="white"/>
</svg>
