<svg width="30" height="20" viewBox="0 0 30 20" fill="none" xmlns="http://www.w3.org/2000/svg">
<rect width="30" height="20" rx="4" fill="#E9E9E9"/>
<path d="M20.7927 12.5322C20.3458 13.7123 19.5503 14.7284 18.512 15.4454C17.4737 16.1625 16.2417 16.5465 14.9798 16.5465C13.718 16.5465 12.486 16.1625 11.4477 15.4454C10.4094 14.7284 9.61391 13.7123 9.16699 12.5322H9.84555C10.2752 13.5362 10.9901 14.392 11.9016 14.9934C12.8131 15.5948 13.8812 15.9154 14.9732 15.9154C16.0653 15.9154 17.1333 15.5948 18.0448 14.9934C18.9563 14.392 19.6713 13.5362 20.1009 12.5322H20.7927Z" fill="#095AA5"/>
<path d="M20.7928 12.5325L20.7339 12.5097C20.2915 13.6777 19.5041 14.6834 18.4763 15.3931C17.4485 16.1029 16.2291 16.483 14.9801 16.483C13.7311 16.483 12.5117 16.1029 11.4839 15.3931C10.4561 14.6834 9.66872 13.6777 9.22631 12.5097L9.16736 12.5325V12.5956H9.84592V12.5325L9.78812 12.5574C10.2226 13.5727 10.9455 14.4382 11.8673 15.0464C12.7891 15.6546 13.8692 15.9788 14.9736 15.9788C16.078 15.9788 17.158 15.6546 18.0798 15.0464C19.0016 14.4382 19.7246 13.5727 20.1591 12.5574L20.101 12.5325V12.5956H20.7928V12.5323L20.7339 12.5094L20.7933 12.5323V12.4692H20.0601L20.0437 12.5074C19.6189 13.5 18.9121 14.3461 18.0109 14.9406C17.1097 15.5352 16.0537 15.8522 14.974 15.8522C13.8944 15.8522 12.8384 15.5352 11.9372 14.9406C11.036 14.3461 10.3292 13.5 9.90441 12.5074L9.88819 12.4692H9.07666L9.1091 12.5547C9.5607 13.7465 10.3643 14.7727 11.4131 15.4969C12.4619 16.221 13.7063 16.6089 14.9808 16.6089C16.2553 16.6089 17.4997 16.221 18.5485 15.4969C19.5973 14.7727 20.4009 13.7465 20.8525 12.5547L20.8851 12.469H20.7937V12.5323L20.7928 12.5325Z" fill="#095AA5"/>
<path d="M20.1542 8.08398C19.9871 7.69804 19.7774 7.33204 19.5289 6.99281C19.4208 7.03223 19.3069 7.05301 19.1919 7.05426C19.037 7.05396 18.8844 7.01616 18.7473 6.94408C18.6101 6.87201 18.4925 6.7678 18.4044 6.64037C18.3163 6.51294 18.2604 6.36607 18.2414 6.21232C18.2224 6.05857 18.2409 5.90251 18.2954 5.75747C17.6172 5.26473 16.8367 4.93121 16.0119 4.78173C15.1871 4.63224 14.3392 4.67063 13.5313 4.89403C12.7234 5.11744 11.9762 5.52012 11.3454 6.07212C10.7146 6.62413 10.2163 7.31125 9.88766 8.08238H9.21436C9.55135 7.18579 10.0915 6.37947 10.7924 5.72668C11.4933 5.07388 12.336 4.59236 13.2542 4.31988C14.1725 4.0474 15.1414 3.99138 16.0849 4.15622C17.0284 4.32105 17.921 4.70225 18.6924 5.26991C18.8441 5.17535 19.0193 5.12561 19.198 5.12643C19.454 5.12643 19.6995 5.22811 19.8804 5.40909C20.0614 5.59008 20.1631 5.83554 20.1631 6.09149C20.1637 6.26612 20.1163 6.43756 20.026 6.58704C20.363 7.04601 20.6352 7.54917 20.835 8.08238L20.153 8.08421L20.1542 8.08398Z" fill="#095AA5"/>
<path d="M20.1536 8.084L20.2117 8.05932C20.0428 7.66899 19.8307 7.29883 19.5793 6.95581L19.5514 6.91743L19.5057 6.93365C19.4045 6.97051 19.2979 6.98998 19.1902 6.99123C19.0454 6.99122 18.9028 6.9561 18.7746 6.88889C18.6464 6.82167 18.5364 6.72436 18.454 6.6053C18.3717 6.48625 18.3194 6.34899 18.3018 6.2053C18.2841 6.06162 18.3016 5.9158 18.3526 5.78034L18.3698 5.73464L18.3307 5.70631C17.6449 5.20841 16.8557 4.87146 16.0218 4.72052C15.1879 4.56957 14.3307 4.60852 13.5139 4.83445C12.6971 5.06038 11.9417 5.4675 11.3039 6.02553C10.6661 6.58357 10.1622 7.27817 9.82977 8.05773L9.8878 8.08263V8.01957H9.21451V8.08263L9.27345 8.10548C9.60696 7.21794 10.1416 6.41975 10.8354 5.77354C11.5292 5.12732 12.3633 4.65066 13.2722 4.38094C14.1812 4.11122 15.1403 4.05579 16.0743 4.21899C17.0083 4.38219 17.8917 4.75959 18.6553 5.32157L18.6896 5.3467L18.7259 5.32385C18.8676 5.23553 19.0313 5.18911 19.1982 5.18997C19.4374 5.19003 19.6668 5.28508 19.8359 5.45423C20.0051 5.62337 20.1001 5.85276 20.1002 6.09197C20.101 6.25505 20.0569 6.4152 19.9727 6.55485L19.9499 6.59095L19.975 6.62476C20.308 7.07917 20.5771 7.57716 20.7746 8.10479L20.8336 8.08194V8.01889L20.1514 8.02071V8.08354L20.2094 8.05887L20.1514 8.08331V8.14637L20.9243 8.14454L20.8925 8.05955C20.6907 7.5209 20.4157 7.01259 20.0753 6.54891L20.0246 6.58638L20.0785 6.61882C20.1745 6.4595 20.2248 6.27684 20.224 6.09083C20.224 5.81815 20.1157 5.55665 19.9229 5.36384C19.7301 5.17103 19.4686 5.06271 19.1959 5.06271C19.0054 5.06192 18.8186 5.11498 18.6569 5.21579L18.6903 5.26925L18.7275 5.21853C17.9482 4.64508 17.0466 4.25999 16.0935 4.09346C15.1404 3.92693 14.1617 3.9835 13.2341 4.25872C12.3065 4.53394 11.4553 5.02033 10.7472 5.67974C10.0391 6.33915 9.49349 7.15364 9.15305 8.05932L9.12061 8.145H9.92687L9.94333 8.10662C10.2683 7.34419 10.7609 6.66483 11.3846 6.11907C12.0084 5.57331 12.7471 5.17518 13.5459 4.9543C14.3447 4.73341 15.183 4.69546 15.9985 4.84326C16.814 4.99106 17.5857 5.32081 18.2562 5.80798L18.2932 5.75703L18.2343 5.73418C18.1759 5.88876 18.1559 6.05519 18.176 6.21919C18.1961 6.38318 18.2557 6.53986 18.3497 6.67577C18.4436 6.81169 18.5691 6.92279 18.7154 6.99954C18.8618 7.07628 19.0245 7.1164 19.1897 7.11643C19.3121 7.11522 19.4334 7.0932 19.5484 7.05131L19.527 6.99191L19.476 7.02892C19.7218 7.36429 19.9293 7.72616 20.0945 8.10776L20.1109 8.14614H20.1527V8.08331L20.1536 8.084Z" fill="#095AA5"/>
<path d="M18.6714 6.08317C18.6713 5.97883 18.7021 5.87679 18.7599 5.78998C18.8178 5.70316 18.9002 5.63547 18.9965 5.59547C19.0929 5.55547 19.199 5.54495 19.3013 5.56526C19.4037 5.58556 19.4977 5.63578 19.5715 5.70954C19.6453 5.7833 19.6955 5.8773 19.7159 5.97964C19.7362 6.08198 19.7258 6.18805 19.6858 6.28444C19.6458 6.38082 19.5782 6.46318 19.4914 6.5211C19.4046 6.57902 19.3026 6.60988 19.1982 6.60979C19.0586 6.60973 18.9246 6.55424 18.8258 6.4555C18.7271 6.35676 18.6715 6.22284 18.6714 6.08317Z" fill="#FF690A"/>
<path d="M18.6716 6.08398H18.6821C18.6822 5.96454 18.7237 5.84883 18.7996 5.75655C18.8754 5.66428 18.9809 5.60115 19.098 5.57792C19.2152 5.55469 19.3368 5.5728 19.4421 5.62915C19.5474 5.68551 19.6299 5.77663 19.6756 5.887C19.7212 5.99736 19.7272 6.12015 19.6925 6.23443C19.6578 6.34872 19.5846 6.44744 19.4853 6.51378C19.3859 6.58012 19.2667 6.60997 19.1478 6.59826C19.029 6.58654 18.9178 6.53398 18.8334 6.44953C18.7853 6.40156 18.7472 6.34457 18.7213 6.28184C18.6953 6.21911 18.682 6.15187 18.6821 6.08398H18.6609C18.6609 6.19031 18.6924 6.29426 18.7515 6.38267C18.8106 6.47108 18.8945 6.53998 18.9928 6.58067C19.091 6.62135 19.1991 6.63198 19.3034 6.61122C19.4077 6.59046 19.5035 6.53923 19.5787 6.46403C19.6538 6.38882 19.705 6.29301 19.7257 6.18871C19.7465 6.08442 19.7358 5.97632 19.6951 5.87809C19.6543 5.77986 19.5854 5.69592 19.497 5.63688C19.4085 5.57783 19.3046 5.54634 19.1982 5.54639C19.1276 5.54636 19.0577 5.56024 18.9925 5.58725C18.9272 5.61425 18.868 5.65385 18.818 5.70378C18.7681 5.7537 18.7285 5.81298 18.7015 5.87821C18.6745 5.94345 18.6606 6.01337 18.6606 6.08398H18.6716Z" fill="#FF690A"/>
<path d="M3.46699 9.29527C3.59636 9.1634 3.75205 9.06026 3.92393 8.99255C4.09059 8.92367 4.26908 8.88797 4.44941 8.88745C4.62763 8.88765 4.80402 8.92338 4.96826 8.99255C5.14264 9.05904 5.30067 9.16228 5.4316 9.29527L5.62329 9.4865L5.24037 9.8749L5.04274 9.68321C4.96374 9.6031 4.86909 9.54011 4.7647 9.49815C4.56277 9.41597 4.33673 9.41597 4.13481 9.49815C4.03042 9.54014 3.93578 9.60312 3.85676 9.68321C3.776 9.75918 3.71283 9.8519 3.6717 9.95486C3.58898 10.1567 3.58898 10.3829 3.6717 10.5848C3.71361 10.6892 3.77661 10.784 3.85676 10.863C3.93366 10.9426 4.02604 11.0055 4.1282 11.048C4.23037 11.0905 4.34015 11.1116 4.45078 11.11C4.56082 11.1102 4.66988 11.0893 4.77201 11.0483C4.87503 11.0071 4.96781 10.9438 5.04389 10.863L5.24151 10.6713L5.62192 11.0616L5.43023 11.2535C5.2983 11.3866 5.14066 11.4916 4.96689 11.5619C4.80169 11.6272 4.62568 11.6609 4.44804 11.6611C4.26828 11.6605 4.09015 11.6269 3.92256 11.5619C3.75133 11.4904 3.59601 11.3855 3.46562 11.2535C3.33384 11.124 3.23064 10.9683 3.16267 10.7965C3.09756 10.6314 3.06408 10.4555 3.06397 10.2779C3.0637 10.0981 3.09718 9.91988 3.16267 9.75244C3.23047 9.58061 3.3336 9.42494 3.46539 9.2955" fill="#095AA5"/>
<path d="M3.46699 9.29517L3.51269 9.33973C3.63596 9.21412 3.78424 9.11582 3.94792 9.05117C4.10692 8.98552 4.27717 8.95145 4.44919 8.95087C4.61901 8.95097 4.7871 8.98499 4.9436 9.05094H4.94497C5.11092 9.11433 5.2613 9.21266 5.38592 9.33927L5.53328 9.4864L5.2381 9.78661L5.08548 9.63857L5.04161 9.68426L5.0873 9.63857C5.00222 9.55238 4.90035 9.48457 4.78801 9.43934C4.57101 9.35097 4.32805 9.35097 4.11105 9.43934C3.99878 9.48448 3.89699 9.55222 3.81199 9.63834L3.85768 9.68403L3.81427 9.63834C3.72691 9.72058 3.6586 9.82094 3.61413 9.93238C3.52525 10.1493 3.52525 10.3924 3.61413 10.6093C3.6821 10.7757 3.79786 10.9181 3.94679 11.0186C4.09571 11.1192 4.27111 11.1733 4.45079 11.1741C4.56882 11.1743 4.68579 11.1518 4.79532 11.1079C4.90675 11.0632 5.0071 10.9947 5.08936 10.9073L5.04367 10.8638L5.08776 10.9095L5.24038 10.7615L5.53556 11.0615L5.3882 11.2091C5.26203 11.3362 5.1113 11.4363 4.9452 11.5033L4.96804 11.5618L4.9452 11.5029C4.78736 11.5653 4.61916 11.5975 4.44942 11.5977C4.27746 11.5971 4.10707 11.5649 3.94678 11.5027L3.92393 11.5616L3.94792 11.5033C3.78435 11.4349 3.63602 11.3347 3.51155 11.2084C3.38589 11.0849 3.28751 10.9365 3.22276 10.7727C3.16052 10.6148 3.12851 10.4466 3.1284 10.2769C3.12805 10.1049 3.16006 9.93442 3.22276 9.77428C3.28755 9.611 3.38585 9.46312 3.51132 9.34018L3.46562 9.29609L3.41993 9.25039C3.28195 9.38591 3.17399 9.5489 3.10304 9.72881C3.03462 9.90351 2.99966 10.0895 3 10.2771C3.00011 10.4625 3.03506 10.6462 3.10304 10.8186C3.17401 10.999 3.28204 11.1624 3.42016 11.2984C3.55633 11.4364 3.71856 11.5459 3.89743 11.6205C4.07235 11.6882 4.2582 11.7232 4.44576 11.7238C4.63228 11.7244 4.81722 11.6897 4.99089 11.6217C5.17243 11.5481 5.33714 11.4384 5.47502 11.2993L5.7108 11.0631L5.24015 10.5847L4.9966 10.8211C4.92675 10.8954 4.84153 10.9535 4.74688 10.9913C4.65246 11.0292 4.55162 11.0486 4.44987 11.0485C4.3477 11.05 4.24631 11.0305 4.15199 10.9912C4.05766 10.9519 3.97242 10.8936 3.90154 10.82C3.82744 10.7471 3.76919 10.6596 3.73042 10.5632C3.65372 10.3764 3.65372 10.1669 3.73042 9.98013C3.76816 9.88554 3.82618 9.80037 3.9004 9.73064C3.97335 9.65652 4.06076 9.5982 4.1572 9.55929C4.34403 9.48321 4.5532 9.48321 4.74003 9.55929C4.83657 9.59814 4.92406 9.65647 4.99706 9.73064L5.24015 9.96596L5.7108 9.48732L5.47479 9.25176C5.33754 9.1125 5.17197 9.00436 4.98929 8.93465L4.96644 8.9936L4.99066 8.93533C4.81882 8.86298 4.63427 8.82562 4.44782 8.82544C4.25966 8.82609 4.07342 8.86334 3.89949 8.9351L3.92234 8.9936L3.89949 8.93488C3.71911 9.0057 3.55564 9.11366 3.4197 9.25176L3.4654 9.29586L3.46699 9.29517Z" fill="#095AA5"/>
<path d="M6.74578 9.67791C6.62153 9.80019 6.53915 9.95865 6.51042 10.1306C6.4817 10.3025 6.5081 10.4792 6.58585 10.6352L6.80793 10.4129C6.91104 10.3101 7.01812 10.2031 7.12915 10.0919L7.45632 9.76473C7.56294 9.66192 7.64542 9.58165 7.70376 9.52392C7.54933 9.44594 7.37447 9.41791 7.20341 9.44373C7.02927 9.46875 6.86847 9.55117 6.74647 9.67791H6.74578ZM8.12391 10.6724L8.51231 11.0608L8.32085 11.2525C8.19213 11.3821 8.03907 11.4849 7.87046 11.555C7.70186 11.6252 7.52105 11.6613 7.33843 11.6613C7.15582 11.6613 6.975 11.6252 6.8064 11.555C6.6378 11.4849 6.48473 11.3821 6.35601 11.2525C6.22455 11.1229 6.1216 10.9673 6.05375 10.7956C5.98876 10.628 5.95515 10.4499 5.95459 10.2701C5.9549 10.0925 5.98854 9.91648 6.05375 9.75125C6.12289 9.58011 6.22578 9.42465 6.35629 9.29414C6.48681 9.16362 6.64227 9.06073 6.81341 8.99159C6.98014 8.92297 7.15859 8.88736 7.33889 8.88672C7.51708 8.88695 7.69345 8.92259 7.85774 8.99159C8.03195 9.05841 8.18991 9.16162 8.32108 9.29431L8.51254 9.48554L6.97448 11.0238C7.13002 11.1038 7.30724 11.1315 7.47976 11.1027C7.65228 11.0738 7.81089 10.9901 7.932 10.8639L8.12437 10.672L8.12391 10.6724Z" fill="#095AA5"/>
<path d="M6.74677 9.67842L6.70108 9.63273C6.56708 9.76453 6.47829 9.93541 6.44746 10.1208C6.41664 10.3062 6.44536 10.4967 6.5295 10.6647L6.56857 10.7431L6.63048 10.6812L6.85256 10.4589L7.17378 10.1376L7.50095 9.81048L7.45526 9.76479L7.4989 9.81048C7.60643 9.70736 7.68914 9.62679 7.74702 9.56876L7.80916 9.50684L7.73079 9.46777C7.60603 9.40454 7.4681 9.37166 7.32823 9.37182C7.28305 9.37185 7.23793 9.37505 7.1932 9.38141C7.00551 9.40868 6.83218 9.49748 6.70039 9.63387L6.74609 9.67957L6.79064 9.72526C6.90311 9.60822 7.05133 9.53194 7.21194 9.50844C7.25085 9.50302 7.29009 9.50028 7.32937 9.50022C7.44958 9.49992 7.56814 9.52819 7.67528 9.5827L7.70361 9.52626L7.65791 9.48057C7.60057 9.53769 7.51877 9.61765 7.41162 9.72046L7.08422 10.0476C6.97304 10.1588 6.86596 10.2658 6.763 10.3686L6.54092 10.5912L6.58662 10.6369L6.64305 10.6085C6.57131 10.4643 6.54706 10.301 6.57378 10.1422C6.6005 9.9833 6.67681 9.83696 6.79178 9.72412L6.74609 9.67842H6.74677ZM8.12422 10.673L8.07853 10.7186L8.42306 11.0632L8.27615 11.2103C8.15331 11.3339 8.00724 11.432 7.84634 11.499C7.68545 11.5659 7.51289 11.6004 7.33862 11.6004C7.16435 11.6004 6.99181 11.5659 6.83091 11.499C6.67001 11.432 6.52394 11.3339 6.4011 11.2103C6.27574 11.0868 6.17753 10.9385 6.11277 10.7748C6.0506 10.6145 6.01846 10.4442 6.01795 10.2722C6.01814 10.1024 6.05023 9.93416 6.11254 9.77621C6.17853 9.61318 6.27664 9.4651 6.40102 9.34075C6.5254 9.21641 6.67352 9.11835 6.83656 9.05241C6.99557 8.9868 7.16582 8.95274 7.33783 8.95212C7.50778 8.95235 7.676 8.98637 7.83269 9.05219C7.99855 9.11599 8.14894 9.21435 8.27387 9.34074L8.42055 9.48742L6.86535 11.0431L6.94372 11.0821C7.06756 11.145 7.20443 11.1778 7.34331 11.1781C7.38734 11.178 7.43132 11.1748 7.47491 11.1685H7.47628C7.66559 11.1379 7.84004 11.0472 7.97389 10.9099L8.16557 10.7186L8.11988 10.673L8.07418 10.7186L8.11988 10.673L8.07418 10.6273L7.88273 10.8185C7.76757 10.9372 7.61717 11.0156 7.45389 11.0419L7.46394 11.1043L7.45503 11.0417C7.41719 11.0471 7.37902 11.0499 7.3408 11.0499C7.22167 11.0497 7.10426 11.0215 6.99809 10.9674L6.96999 11.0239L7.01568 11.0684L8.59829 9.48559L8.36229 9.24958C8.22484 9.11067 8.05943 9.00257 7.87702 8.93247L7.85417 8.99141L7.87839 8.93315C7.70641 8.86101 7.52181 8.82373 7.33531 8.82349C7.14718 8.82418 6.96097 8.86135 6.78698 8.93292L6.80983 8.99141L6.78698 8.93247C6.60776 9.00486 6.44495 9.11261 6.30827 9.24929C6.17159 9.38597 6.06384 9.54877 5.99145 9.728C5.92351 9.90054 5.88848 10.0843 5.88818 10.2697C5.88865 10.4572 5.92358 10.6431 5.99122 10.818V10.8196C6.06223 10.9999 6.17008 11.1633 6.30788 11.2994C6.44242 11.4348 6.60239 11.5422 6.7786 11.6155C6.95481 11.6888 7.14378 11.7266 7.33463 11.7266C7.52548 11.7266 7.71444 11.6888 7.89065 11.6155C8.06686 11.5422 8.22684 11.4348 8.36137 11.2994L8.59738 11.0632L8.11919 10.585L8.0735 10.6307L8.11919 10.6748L8.12422 10.673Z" fill="#095AA5"/>
<path d="M8.84675 10.2711C8.84491 10.0868 8.88059 9.90406 8.95161 9.73399C9.02223 9.57043 9.12299 9.42162 9.24863 9.29532C9.37571 9.16798 9.52674 9.06704 9.693 8.99832C9.86262 8.92439 10.0458 8.88666 10.2308 8.88751C10.4159 8.88578 10.5991 8.92356 10.7684 8.99832C10.9347 9.06706 11.0858 9.168 11.213 9.29532C11.4723 9.5541 11.6188 9.90483 11.6206 10.2711V11.6611H11.0707V10.2711C11.0713 10.1608 11.0479 10.0516 11.0021 9.95126C10.9171 9.75094 10.7576 9.59146 10.5573 9.50643C10.454 9.46183 10.3426 9.43882 10.23 9.43882C10.1175 9.43882 10.0061 9.46183 9.90274 9.50643C9.80334 9.54812 9.71312 9.60899 9.63726 9.68555C9.56158 9.76224 9.50084 9.85234 9.45814 9.95126C9.41664 10.0528 9.39567 10.1615 9.39645 10.2711V11.6611H8.84675V10.2711Z" fill="#095AA5"/>
<path d="M8.84666 10.271H8.90972C8.90779 10.0951 8.94176 9.92074 9.00956 9.75849L8.95153 9.73382L9.00933 9.75918C9.07674 9.60283 9.17292 9.46054 9.29286 9.33971C9.4141 9.21823 9.55823 9.12202 9.7169 9.05663C9.87852 8.98618 10.0531 8.95023 10.2294 8.95108C10.4055 8.94933 10.58 8.98524 10.7411 9.0564C10.8999 9.12181 11.0441 9.21802 11.1654 9.33948C11.2872 9.45772 11.3832 9.59983 11.4476 9.75689C11.5188 9.91785 11.5548 10.0922 11.5531 10.2682V11.5952H11.1295V10.2682C11.1304 10.1485 11.1052 10.03 11.0557 9.92094L10.9984 9.94721L11.0569 9.92436C11.0139 9.81526 10.9476 9.71692 10.8624 9.63626L10.8193 9.68195L10.865 9.63877C10.7843 9.55367 10.686 9.4873 10.5769 9.44434L10.554 9.50306L10.5794 9.44526C10.468 9.39715 10.348 9.37232 10.2267 9.37232C10.1054 9.37232 9.98543 9.39715 9.87409 9.44526L9.89945 9.50306L9.87523 9.4448C9.76827 9.48979 9.67117 9.5553 9.58942 9.63763C9.50822 9.71983 9.44305 9.81645 9.39727 9.92253V9.92368C9.35237 10.0332 9.32977 10.1505 9.33079 10.2689V11.5958H8.9072V10.2689H8.78223V11.7222H9.45827V10.2689C9.45721 10.1671 9.47656 10.0661 9.51516 9.97188L9.4569 9.94766L9.5147 9.97325C9.55426 9.88152 9.61051 9.79794 9.68058 9.72673C9.75069 9.65594 9.83407 9.59965 9.92595 9.56109C10.0213 9.51995 10.1241 9.49873 10.228 9.49873C10.3319 9.49873 10.4346 9.51995 10.53 9.56109H10.5314C10.6235 9.5973 10.7065 9.6533 10.7745 9.72513L10.7759 9.72628L10.777 9.72742C10.8489 9.79539 10.9049 9.8784 10.941 9.97051V9.97234V9.97348C10.9831 10.0659 11.0043 10.1664 11.0032 10.268V11.7213H11.6792V10.268C11.6809 10.0742 11.6412 9.88225 11.5627 9.70503L11.5051 9.73085L11.5634 9.70663C11.4925 9.53363 11.3866 9.37713 11.2524 9.24695L11.2086 9.29264L11.2543 9.24695C11.1213 9.11385 10.9633 9.0084 10.7893 8.93668L10.7651 8.99494L10.7907 8.93737C10.6134 8.8589 10.4214 8.81918 10.2275 8.82085C10.0339 8.82 9.84213 8.85953 9.66458 8.93691L9.68971 8.99472L9.6655 8.93646C9.49161 9.00815 9.33366 9.1136 9.20079 9.24672C9.06995 9.37835 8.96495 9.53334 8.89121 9.70366C8.81683 9.88153 8.77943 10.0727 8.78132 10.2655H8.84323L8.84666 10.271Z" fill="#095AA5"/>
<path d="M12.3546 9.29527C12.484 9.16346 12.6397 9.06032 12.8115 8.99255C12.9782 8.92365 13.1567 8.88795 13.337 8.88745C13.5152 8.88765 13.6916 8.92338 13.8559 8.99255C14.0301 9.05915 14.188 9.16238 14.319 9.29527L14.5107 9.4865L14.1277 9.8749L13.9301 9.68321C13.8511 9.60315 13.7564 9.54017 13.6521 9.49815C13.4501 9.41598 13.2239 9.41598 13.0219 9.49815C12.9176 9.54017 12.8229 9.60315 12.7439 9.68321C12.6631 9.75925 12.5998 9.85194 12.5584 9.95486C12.4762 10.1568 12.4762 10.3828 12.5584 10.5848C12.6006 10.6892 12.6637 10.7839 12.7439 10.863C12.8208 10.9426 12.9132 11.0056 13.0153 11.048C13.1175 11.0905 13.2273 11.1116 13.3379 11.11C13.4479 11.1102 13.5569 11.0893 13.6589 11.0483C13.7619 11.007 13.8547 10.9438 13.9308 10.863L14.1284 10.6713L14.5113 11.0597L14.3197 11.2517C14.1877 11.3847 14.0302 11.4896 13.8565 11.5601C13.6913 11.6254 13.5153 11.659 13.3377 11.6592C13.1579 11.6587 12.9798 11.6251 12.8122 11.5601C12.641 11.4885 12.4857 11.3836 12.3553 11.2517C12.2236 11.1222 12.1205 10.9665 12.0528 10.7947C11.9874 10.6296 11.9538 10.4537 11.9536 10.2761C11.9534 10.0963 11.987 9.91799 12.0528 9.75061C12.1201 9.57874 12.2229 9.42303 12.3546 9.29367" fill="#095AA5"/>
<path d="M12.3548 9.29465L12.4005 9.33921C12.5239 9.21365 12.6722 9.11535 12.8359 9.05065C12.9949 8.98494 13.1652 8.95087 13.3372 8.95035C13.5071 8.95041 13.6753 8.98443 13.8318 9.05042C13.9978 9.11388 14.1483 9.2122 14.273 9.33875L14.4204 9.48588L14.1252 9.78609L13.9726 9.63805L13.9287 9.68374L13.9744 9.63805C13.8894 9.55191 13.7876 9.4841 13.6753 9.43882C13.4583 9.35048 13.2152 9.35048 12.9982 9.43882C12.8859 9.48415 12.7842 9.55195 12.6991 9.63805L12.7448 9.68374L12.7011 9.63805C12.6139 9.72043 12.5455 9.82074 12.5008 9.93208C12.4125 10.149 12.4125 10.3919 12.5008 10.6088C12.5461 10.7212 12.614 10.823 12.7002 10.9081C12.7829 10.9934 12.8821 11.061 12.9918 11.1067C13.1015 11.1524 13.2193 11.1752 13.3381 11.1738C13.4562 11.174 13.5731 11.1515 13.6827 11.1076C13.7942 11.0629 13.8946 10.9944 13.9769 10.907L13.9312 10.8636L13.9751 10.9093L14.1277 10.7612L14.4229 11.0612L14.2755 11.2088C14.1495 11.3358 13.9991 11.436 13.8332 11.5033L13.8561 11.5618L13.8332 11.5028C13.6754 11.5653 13.5072 11.5974 13.3374 11.5976C13.1655 11.5971 12.9951 11.5649 12.8348 11.5026L12.812 11.5615L12.8359 11.5033C12.6723 11.4348 12.5239 11.3346 12.3993 11.2083C12.2738 11.0849 12.1755 10.9365 12.111 10.7726C12.0486 10.6148 12.0165 10.4466 12.0164 10.2768C12.0161 10.1048 12.0482 9.93432 12.111 9.77421C12.1756 9.61089 12.2738 9.46299 12.3993 9.34012L12.3536 9.29442L12.3079 9.24873C12.1702 9.38479 12.0627 9.54835 11.9924 9.72875C11.9239 9.90343 11.8889 10.0894 11.8892 10.2771C11.8893 10.4625 11.9243 10.6463 11.9924 10.8188C12.0632 10.9992 12.1712 11.1626 12.3093 11.2986C12.4456 11.4365 12.6079 11.546 12.7868 11.6207H12.788C12.9629 11.6884 13.1487 11.7234 13.3363 11.724C13.5217 11.7237 13.7055 11.6886 13.878 11.6205C14.0595 11.547 14.2242 11.4374 14.3621 11.2983L14.5979 11.0621L14.127 10.5837L13.8839 10.8199C13.814 10.8941 13.7288 10.9522 13.6342 10.9901C13.5398 11.028 13.439 11.0474 13.3372 11.0472C13.235 11.0488 13.1336 11.0292 13.0393 10.9899C12.945 10.9506 12.8598 10.8924 12.7889 10.8188C12.7148 10.7457 12.6565 10.6582 12.6175 10.5617C12.5412 10.3748 12.5412 10.1654 12.6175 9.97846C12.6554 9.88408 12.7134 9.79909 12.7875 9.72943C12.8605 9.65531 12.9479 9.59699 13.0443 9.55808C13.2313 9.48197 13.4406 9.48197 13.6276 9.55808C13.7241 9.59693 13.8116 9.65526 13.8846 9.72943L14.1277 9.96499L14.5984 9.48634L14.3626 9.25079C14.2253 9.11163 14.0599 9.0035 13.8773 8.93367L13.8545 8.99262L13.8787 8.93436C13.7068 8.86199 13.5221 8.82463 13.3356 8.82446C13.1474 8.82505 12.9612 8.8623 12.7873 8.93413L12.8101 8.99262L12.7873 8.9339C12.6069 9.0047 12.4434 9.11267 12.3075 9.25079L12.3532 9.29648L12.3548 9.29465Z" fill="#095AA5"/>
<path d="M15.3879 10.2706C15.3872 10.3828 15.4081 10.494 15.4496 10.5982C15.4902 10.7 15.5511 10.7925 15.6286 10.87C15.7061 10.9475 15.7986 11.0084 15.9004 11.049C16.0542 11.1142 16.224 11.1319 16.3879 11.1001C16.5519 11.0682 16.7027 10.9881 16.8209 10.8701C16.9768 10.7092 17.0651 10.4946 17.0679 10.2706C17.0686 10.1599 17.0452 10.0504 16.9993 9.9496C16.9142 9.74942 16.7547 9.59005 16.5545 9.505C16.3995 9.44089 16.229 9.4237 16.0643 9.45559C15.8996 9.48747 15.7479 9.56701 15.628 9.68434C15.5523 9.76076 15.4915 9.85075 15.4489 9.9496C15.4069 10.0513 15.3858 10.1605 15.387 10.2706H15.3879ZM14.8432 10.2706C14.8414 10.0863 14.8771 9.90356 14.9481 9.73347C15.0188 9.56995 15.1195 9.42115 15.2451 9.2948C15.3723 9.16733 15.5235 9.06637 15.69 8.99779C15.8594 8.92354 16.0425 8.88564 16.2275 8.88653C16.4126 8.88482 16.5958 8.92276 16.7649 8.99779C16.9314 9.06639 17.0826 9.16734 17.2097 9.2948C17.4689 9.55366 17.6153 9.90434 17.6173 10.2706C17.6183 10.4556 17.5804 10.6388 17.5061 10.8082C17.4374 10.9746 17.3364 11.1258 17.2091 11.253C17.0809 11.3807 16.9301 11.4834 16.7642 11.5557C16.5941 11.6267 16.4112 11.6624 16.2269 11.6606C16.0425 11.6617 15.8597 11.626 15.6893 11.5557C15.5234 11.4834 15.3726 11.3807 15.2444 11.253C15.1197 11.1236 15.0191 10.973 14.9474 10.8082C14.8774 10.6377 14.8419 10.4549 14.8428 10.2706" fill="#095AA5"/>
<path d="M15.3879 10.2707H15.3249C15.3241 10.391 15.3467 10.5102 15.3914 10.6219V10.6232C15.4379 10.73 15.5025 10.8279 15.5824 10.9127L15.5837 10.9141C15.6686 10.994 15.7666 11.0586 15.8734 11.1051C16.0991 11.1938 16.3499 11.1938 16.5755 11.1051H16.5769C16.683 11.0592 16.7796 10.994 16.8618 10.9127C16.9454 10.8293 17.0111 10.7297 17.0549 10.62L16.9964 10.5972L17.0542 10.6225C17.103 10.5113 17.1279 10.391 17.1273 10.2696C17.1282 10.1499 17.1031 10.0315 17.0537 9.92251L16.9964 9.94879L17.0549 9.92594C17.0118 9.81702 16.9455 9.71883 16.8604 9.6383L16.8173 9.68399L16.8629 9.64081C16.7824 9.55553 16.684 9.48906 16.5748 9.44615L16.552 9.50464L16.5776 9.44684C16.4662 9.39851 16.3461 9.37358 16.2247 9.37358C16.1033 9.37358 15.9832 9.39851 15.8718 9.44684L15.8974 9.50464L15.8746 9.44615C15.7647 9.48983 15.6649 9.55562 15.5815 9.63944C15.5001 9.72147 15.4348 9.81803 15.3891 9.92411V9.92525C15.344 10.0347 15.3213 10.1521 15.3224 10.2705H15.448C15.4469 10.1687 15.4663 10.0677 15.5049 9.97346L15.4467 9.94902L15.5045 9.9746C15.5438 9.88291 15.6001 9.79944 15.6703 9.72854C15.7418 9.65661 15.8273 9.60028 15.9216 9.56313C16.0169 9.52194 16.1196 9.50069 16.2235 9.50069C16.3273 9.50069 16.43 9.52194 16.5253 9.56313C16.6175 9.59924 16.7005 9.65525 16.7686 9.72717L16.7702 9.72854C16.842 9.79658 16.898 9.87957 16.9342 9.97163V9.97278V9.97415C16.9761 10.0667 16.9973 10.1673 16.9964 10.2689C16.997 10.3729 16.9757 10.4759 16.9338 10.5711C16.8965 10.6653 16.8403 10.7509 16.7686 10.8225C16.6976 10.8927 16.6139 10.949 16.5221 10.9883L16.5474 11.0461L16.5246 10.9876C16.3293 11.064 16.1124 11.064 15.9171 10.9876L15.8942 11.0461L15.9196 10.9886C15.826 10.9479 15.7401 10.8914 15.6658 10.8215L15.6223 10.8672L15.668 10.8238C15.5981 10.7495 15.5416 10.6636 15.501 10.57L15.4432 10.5956L15.5017 10.5727C15.4633 10.476 15.4439 10.3727 15.4446 10.2686H15.382L15.3879 10.2707ZM14.8442 10.2707H14.9072C14.9054 10.0949 14.9395 9.92049 15.0073 9.75824L14.9493 9.73357L15.0071 9.75893C15.0744 9.60263 15.1704 9.46034 15.2902 9.33946C15.4114 9.21801 15.5557 9.12186 15.7144 9.05661H15.7156C15.877 8.98588 16.0515 8.94985 16.2278 8.95083C16.4038 8.94908 16.5782 8.98507 16.7391 9.05638C16.8979 9.12162 17.0421 9.21776 17.1634 9.33923L17.1648 9.3406C17.2865 9.45885 17.3826 9.60095 17.4469 9.75801C17.5182 9.91897 17.5542 10.0933 17.5525 10.2693C17.5534 10.4457 17.5174 10.6203 17.4467 10.7818V10.7832C17.3813 10.9419 17.2852 11.0861 17.1638 11.2074C17.0413 11.3296 16.897 11.4278 16.7384 11.4969L16.7638 11.5547L16.7391 11.4967C16.5768 11.5644 16.4023 11.5984 16.2264 11.5965C16.0504 11.5976 15.8758 11.5636 15.7131 11.4964L15.6888 11.5547L15.7142 11.4969C15.5555 11.4278 15.4111 11.3296 15.2886 11.2074L15.2429 11.2531L15.2886 11.2093C15.1691 11.0853 15.0729 10.9409 15.0043 10.7829L14.9465 10.8083L15.0048 10.7854C14.9377 10.6226 14.9036 10.448 14.9047 10.2718H14.7811C14.7801 10.4645 14.8174 10.6555 14.8908 10.8336V10.8348C14.9653 11.0064 15.0699 11.1634 15.1997 11.2981C15.3333 11.4313 15.4906 11.5384 15.6635 11.6139C15.8416 11.6873 16.0326 11.7247 16.2253 11.7238C16.4181 11.7255 16.6093 11.6882 16.7873 11.6139C16.9602 11.5384 17.1175 11.4314 17.2511 11.2984C17.3842 11.1652 17.4896 11.007 17.5614 10.833L17.5031 10.8087L17.5609 10.8341C17.6387 10.6567 17.6784 10.4649 17.6774 10.2712C17.6792 10.0773 17.6394 9.88537 17.5607 9.70821L17.5031 9.73403L17.5614 9.70981C17.4906 9.53682 17.3848 9.38033 17.2507 9.25012L17.2068 9.29582L17.2513 9.25012C17.1185 9.11697 16.9604 9.01158 16.7864 8.94009L16.7622 8.99835L16.788 8.94078C16.6108 8.86209 16.4187 8.82228 16.2248 8.82403C16.0311 8.82312 15.8393 8.86281 15.6619 8.94055L15.6872 8.99835L15.663 8.94009C15.4889 9.01157 15.3308 9.11695 15.1979 9.25012C15.0671 9.38179 14.9621 9.53677 14.8883 9.70706C14.814 9.88496 14.7766 10.0761 14.7784 10.2689H14.8412L14.8442 10.2707Z" fill="#095AA5"/>
<path d="M20.4529 8.88745V9.43738H18.7791C18.7425 9.43686 18.7061 9.44368 18.6722 9.45745C18.6382 9.47123 18.6073 9.49167 18.5814 9.51757C18.5555 9.54347 18.535 9.5743 18.5212 9.60825C18.5074 9.64219 18.5006 9.67856 18.5011 9.7152C18.5001 9.79105 18.529 9.86423 18.5815 9.91899C18.6072 9.94517 18.638 9.9658 18.672 9.97959C18.706 9.99339 18.7424 10.0001 18.7791 9.99919H19.8909C20.0016 9.9983 20.1112 10.0217 20.2119 10.0677C20.3114 10.1064 20.4019 10.1653 20.4776 10.2407C20.5559 10.3151 20.6171 10.4057 20.6569 10.5062C20.7027 10.6071 20.7261 10.7168 20.7255 10.8276C20.7244 11.05 20.6355 11.263 20.4782 11.4203C20.4017 11.4962 20.3116 11.557 20.2125 11.5996C20.1108 11.6415 20.0016 11.6626 19.8915 11.6615H18.2237V11.1105H19.8915C19.9292 11.1119 19.9668 11.1055 20.0019 11.0917C20.037 11.0779 20.0689 11.0571 20.0956 11.0304C20.1222 11.0038 20.1431 10.9719 20.1569 10.9368C20.1707 10.9017 20.1771 10.8642 20.1758 10.8265C20.1765 10.7898 20.1698 10.7533 20.156 10.7194C20.1421 10.6854 20.1215 10.6546 20.0953 10.6288C20.0686 10.6023 20.0368 10.5814 20.0017 10.5676C19.9667 10.5538 19.9292 10.5472 19.8915 10.5484H18.7798C18.6703 10.552 18.5613 10.5324 18.4598 10.491C18.3584 10.4496 18.2668 10.3873 18.191 10.3081C18.1172 10.23 18.0566 10.1403 18.0119 10.0426C17.9705 9.93844 17.9496 9.82728 17.9502 9.7152C17.9492 9.60508 17.9701 9.49586 18.0119 9.39397C18.0546 9.29503 18.1153 9.20492 18.191 9.12826C18.348 8.97499 18.5584 8.88866 18.7777 8.88745H20.4529Z" fill="#095AA5"/>
<path d="M20.4524 8.88765H20.3894V9.37452H18.7787C18.7337 9.374 18.6892 9.38246 18.6476 9.3994C18.606 9.41635 18.5682 9.44143 18.5364 9.47319C18.5046 9.50494 18.4795 9.54272 18.4625 9.58432C18.4455 9.62591 18.4371 9.67048 18.4375 9.7154C18.4368 9.80715 18.4717 9.89562 18.5349 9.96214C18.5665 9.9941 18.6043 10.0193 18.646 10.0363C18.6876 10.0532 18.7323 10.0616 18.7773 10.0608H19.889C19.9906 10.0599 20.0912 10.0812 20.1837 10.1232H20.1849H20.1867C20.2783 10.159 20.3615 10.2135 20.4309 10.2831C20.5027 10.3513 20.5588 10.4342 20.5952 10.5262V10.5276V10.5288C20.637 10.6215 20.6582 10.7222 20.6574 10.8239C20.6578 10.928 20.6365 11.0309 20.5948 11.1262V11.128C20.5563 11.2198 20.5 11.3029 20.4291 11.3727C20.3581 11.4431 20.2745 11.4996 20.1826 11.539L20.208 11.5968L20.1835 11.5386C20.0893 11.5774 19.9883 11.5968 19.8865 11.5957H18.282V11.1719H19.8865C19.9324 11.1731 19.9781 11.165 20.0208 11.148C20.0635 11.1309 20.1023 11.1054 20.1348 11.0729C20.1673 11.0404 20.1928 11.0016 20.2098 10.959C20.2269 10.9163 20.235 10.8706 20.2338 10.8246C20.2345 10.7796 20.2262 10.7349 20.2091 10.6933C20.1921 10.6516 20.1669 10.6138 20.1349 10.5822C20.1023 10.5498 20.0635 10.5243 20.0208 10.5073C19.9781 10.4903 19.9324 10.4821 19.8865 10.4833H18.7748C18.6706 10.4839 18.5673 10.4646 18.4704 10.4262L18.4476 10.4847L18.4739 10.4273C18.3842 10.3867 18.3026 10.3303 18.2328 10.2608L18.1871 10.3064L18.2328 10.263C18.1636 10.19 18.107 10.106 18.0651 10.0145L18.0078 10.041L18.0665 10.0181C18.0281 9.92138 18.0087 9.81812 18.0094 9.71402C18.0083 9.61223 18.0275 9.51124 18.066 9.41702L18.0078 9.39257L18.0654 9.41793C18.105 9.3261 18.1613 9.24242 18.2315 9.17118C18.2999 9.1027 18.3811 9.04836 18.4704 9.01125C18.5656 8.96955 18.6685 8.9483 18.7725 8.94888H20.4462V8.88445V8.82139H18.7725C18.651 8.8208 18.5307 8.84571 18.4195 8.8945L18.4451 8.95231L18.4206 8.89405C18.3162 8.93726 18.2212 9.0006 18.1412 9.08048C18.06 9.1627 17.9948 9.25931 17.9488 9.36538C17.9039 9.47486 17.8813 9.59224 17.8824 9.7106C17.8816 9.83073 17.904 9.94988 17.9484 10.0615V10.0631V10.0643C17.996 10.1682 18.0605 10.2636 18.1392 10.3467C18.2195 10.4267 18.3135 10.4917 18.4168 10.5386H18.4184H18.4197C18.5314 10.583 18.6505 10.6055 18.7707 10.6048H19.8824C19.9119 10.6035 19.9414 10.6083 19.9689 10.619C19.9965 10.6297 20.0215 10.646 20.0423 10.667C20.0627 10.6868 20.0787 10.7106 20.0894 10.737C20.1001 10.7633 20.1053 10.7916 20.1045 10.82C20.1057 10.8494 20.1008 10.8787 20.0901 10.9061C20.0794 10.9335 20.0632 10.9583 20.0424 10.9791C20.0216 10.9999 19.9967 11.0161 19.9693 11.0267C19.942 11.0374 19.9127 11.0422 19.8833 11.041H18.1524V11.7173H19.8833C20.0018 11.7181 20.1192 11.6954 20.2287 11.6503C20.335 11.6046 20.4318 11.5392 20.5139 11.4577C20.5963 11.3762 20.6619 11.2792 20.7067 11.1724L20.6484 11.1479L20.7062 11.1733C20.7549 11.062 20.7798 10.9419 20.7794 10.8205C20.7802 10.7007 20.7551 10.5822 20.7058 10.473L20.6484 10.499L20.7069 10.4762C20.6639 10.3673 20.5975 10.2691 20.5125 10.1886L20.4691 10.2343L20.5148 10.1886C20.433 10.1072 20.3352 10.0435 20.2276 10.0017L20.2048 10.0602L20.2313 10.003C20.1222 9.95334 20.0036 9.92808 19.8838 9.92902H18.772C18.7436 9.92987 18.7154 9.92482 18.689 9.9142C18.6627 9.90359 18.6388 9.88763 18.6189 9.86733L18.5744 9.91302L18.6201 9.87007C18.5787 9.82721 18.5558 9.76974 18.5566 9.71014C18.5561 9.68182 18.5614 9.6537 18.572 9.62745C18.5826 9.60119 18.5984 9.57735 18.6185 9.55733C18.6385 9.53731 18.6624 9.52153 18.6886 9.51093C18.7149 9.50032 18.743 9.49511 18.7713 9.49561H20.5077V8.81934H20.4447V8.88217L20.4524 8.88765Z" fill="#095AA5"/>
<path d="M23.8307 8.88745V10.2708C23.8317 10.4558 23.7938 10.639 23.7195 10.8084C23.6508 10.9749 23.5498 11.126 23.4224 11.2533C23.2944 11.381 23.1435 11.4835 22.9776 11.5555C22.8075 11.6268 22.6247 11.6626 22.4402 11.6608C22.2559 11.6618 22.0732 11.626 21.9029 11.5555C21.737 11.4836 21.5862 11.381 21.4583 11.2533C21.3336 11.1238 21.233 10.9732 21.1613 10.8084C21.0909 10.638 21.0551 10.4552 21.0562 10.2708V8.88745H21.6059V10.2708C21.6053 10.383 21.6263 10.4942 21.6678 10.5985C21.7114 10.6986 21.772 10.7904 21.8469 10.8699C21.925 10.9438 22.0148 11.0043 22.1126 11.049C22.2664 11.1142 22.4362 11.132 22.6001 11.1C22.7641 11.0681 22.9148 10.988 23.0329 10.8699C23.1885 10.7089 23.2769 10.4945 23.2799 10.2706V8.88745H23.8296H23.8307Z" fill="#095AA5"/>
<path d="M23.8309 8.88773H23.7679V10.2711C23.7688 10.4475 23.7327 10.6221 23.6619 10.7836V10.7847C23.5965 10.9435 23.5003 11.0877 23.379 11.2092C23.2566 11.3314 23.1123 11.4295 22.9536 11.4982L22.979 11.556L22.9543 11.498C22.792 11.566 22.6175 11.6001 22.4416 11.5983C22.2656 11.5994 22.0911 11.5653 21.9284 11.498L21.9042 11.5563L21.9294 11.4985C21.7707 11.4296 21.6265 11.3315 21.5042 11.2092L21.4585 11.2549L21.5042 11.211C21.3848 11.087 21.2885 10.9427 21.22 10.7847L21.1622 10.8101L21.2204 10.7861C21.1532 10.6233 21.1191 10.4487 21.1201 10.2725V8.95079H21.5435V10.2711C21.5429 10.3913 21.5653 10.5104 21.6097 10.622C21.6563 10.7289 21.721 10.8268 21.801 10.9115L21.8023 10.9129C21.8854 10.9916 21.9809 11.056 22.0849 11.1037H22.0865H22.0879C22.3134 11.1919 22.5638 11.1919 22.7893 11.1037H22.7907C22.8967 11.0576 22.9933 10.9924 23.0756 10.9113C23.1591 10.8278 23.2247 10.7281 23.2684 10.6184L23.2097 10.5955L23.2675 10.6211C23.3165 10.5098 23.3415 10.3895 23.3409 10.2679V8.95079H23.8275V8.88773H23.8259V8.82468H23.2131V10.2711C23.2137 10.3752 23.1923 10.4782 23.1503 10.5734V10.5745C23.1132 10.6687 23.057 10.7543 22.9854 10.8258C22.9141 10.8959 22.8305 10.9523 22.7388 10.9919L22.7644 11.0495L22.7416 10.991C22.5461 11.0672 22.3293 11.0672 22.1338 10.991L22.111 11.0495L22.1373 10.9924C22.0457 10.9506 21.9618 10.8939 21.8887 10.8247L21.8453 10.8704L21.891 10.827C21.821 10.7527 21.7644 10.6669 21.7237 10.5734L21.6662 10.599L21.7249 10.5761C21.6864 10.4793 21.6669 10.376 21.6675 10.2718V8.82514H20.9917V10.2718C20.9907 10.4645 21.0281 10.6555 21.1016 10.8336V10.835C21.1762 11.0065 21.2808 11.1633 21.4105 11.2981C21.544 11.4313 21.7013 11.5383 21.8743 11.6134C22.0523 11.687 22.2432 11.7244 22.4359 11.7235C22.6288 11.7252 22.82 11.6877 22.9979 11.6132C23.171 11.538 23.3284 11.4311 23.4619 11.2979C23.595 11.1648 23.7003 11.0067 23.772 10.8327L23.7137 10.8085L23.7715 10.8338C23.8494 10.6564 23.8892 10.4646 23.8883 10.2709V8.82422H23.8252V8.88796L23.8309 8.88773Z" fill="#095AA5"/>
<path d="M25.5539 11.1098C25.6641 11.1109 25.7734 11.09 25.8754 11.0484C25.9742 11.0055 26.0642 10.9447 26.1409 10.869C26.2966 10.7081 26.385 10.4937 26.3878 10.2697V9.43629H25.5539C25.3301 9.43896 25.1158 9.52735 24.9551 9.68327C24.8793 9.75974 24.8185 9.8498 24.776 9.94875C24.7342 10.0506 24.7131 10.1598 24.7141 10.27C24.7135 10.3821 24.7345 10.4934 24.776 10.5976C24.8168 10.6993 24.8778 10.7916 24.9553 10.8691C25.0327 10.9466 25.1251 11.0076 25.2268 11.0484C25.3308 11.0897 25.4418 11.1106 25.5537 11.1098H25.5539ZM26.9375 7.77417V10.2691C26.9385 10.4541 26.9006 10.6374 26.8263 10.8069C26.6861 11.1409 26.4231 11.4083 26.0915 11.554C25.7473 11.6941 25.3619 11.6941 25.0177 11.554C24.6827 11.4089 24.4154 11.1418 24.2702 10.8069C24.1998 10.6364 24.1641 10.4535 24.1651 10.2691C24.1661 9.9966 24.2476 9.73051 24.3993 9.50417C24.551 9.27783 24.7661 9.1013 25.0177 8.99671C25.1871 8.92283 25.37 8.8851 25.5548 8.88591H26.3888V7.77417H26.9385H26.9375Z" fill="#095AA5"/>
<path d="M25.554 11.1108V11.1739C25.6725 11.175 25.79 11.1524 25.8997 11.1074H25.9008C26.0067 11.0614 26.1032 10.9962 26.1853 10.915C26.2689 10.8316 26.3346 10.7319 26.3783 10.6221L26.3196 10.5993L26.3774 10.6249C26.4264 10.5136 26.4514 10.3932 26.4508 10.2716V9.37513H25.5538C25.4324 9.37457 25.3122 9.39947 25.201 9.44824L25.2266 9.50604L25.2038 9.44755C25.094 9.49121 24.9943 9.55692 24.9109 9.64061C24.8294 9.72255 24.7641 9.81913 24.7185 9.92529C24.6735 10.0349 24.6508 10.1523 24.6518 10.2707C24.6511 10.391 24.6737 10.5102 24.7183 10.6219V10.623C24.7647 10.73 24.8294 10.828 24.9095 10.9127L24.9109 10.9139C24.9956 10.9938 25.0935 11.0585 25.2003 11.1051H25.2015C25.3131 11.1493 25.4321 11.1718 25.5522 11.1711V11.0457C25.4482 11.0464 25.345 11.027 25.2483 10.9886L25.2255 11.0473L25.2508 10.9895C25.1572 10.9488 25.0714 10.8921 24.9972 10.822L24.9538 10.8677L24.9995 10.8243C24.9294 10.7502 24.8729 10.6645 24.8323 10.5709L24.7745 10.5963L24.8332 10.5735C24.7946 10.4767 24.7751 10.3733 24.7758 10.2691C24.7748 10.1673 24.7942 10.0663 24.833 9.97212L24.7747 9.94767L24.8325 9.97326C24.8719 9.88151 24.9282 9.79802 24.9986 9.7272C25.0701 9.65532 25.1556 9.59901 25.2499 9.56179C25.345 9.52012 25.4479 9.49895 25.5517 9.49965H26.3226V10.27C26.3232 10.3741 26.3019 10.4771 26.26 10.5723C26.2228 10.6665 26.1667 10.7521 26.095 10.8236C26.0239 10.8938 25.9404 10.9501 25.8487 10.9897L25.8743 11.0475L25.8499 10.9893C25.7557 11.0279 25.6547 11.0472 25.5529 11.0462V11.1085L25.554 11.1108ZM26.9378 7.77515H26.8743V10.27C26.8752 10.4464 26.8391 10.621 26.7683 10.7825V10.7836C26.7029 10.9424 26.6068 11.0867 26.4855 11.2081C26.3661 11.3307 26.2238 11.4287 26.0667 11.4965L26.0921 11.5543L26.0678 11.496C25.7388 11.6299 25.3705 11.6299 25.0416 11.496L25.0173 11.5543L25.0425 11.4965C24.7221 11.3576 24.4666 11.1021 24.3276 10.7818L24.27 10.8072L24.3283 10.783C24.2611 10.6201 24.227 10.4455 24.228 10.2694C24.2261 10.0935 24.2602 9.91914 24.328 9.7569L24.27 9.73223L24.3278 9.75759C24.3957 9.60047 24.4938 9.45824 24.6166 9.33903C24.7379 9.21755 24.8821 9.12134 25.0409 9.05596C25.2023 8.98547 25.3767 8.94951 25.5529 8.9504H26.4498V7.83867H26.9365V7.77424H26.9353V7.71118H26.3237V8.82292H25.5529C25.3593 8.8221 25.1677 8.86171 24.9904 8.93921L25.0157 8.99701L24.9915 8.93875C24.8174 9.01046 24.6593 9.11599 24.5263 9.24924L24.572 9.29494L24.5282 9.24924C24.3937 9.37988 24.2862 9.53568 24.2117 9.70778V9.70892C24.1373 9.88679 24.0999 10.0779 24.1016 10.2707C24.1007 10.4635 24.1381 10.6545 24.2115 10.8328V10.8341C24.3631 11.1835 24.6418 11.4622 24.9913 11.6137H24.9924C25.3523 11.7605 25.7554 11.7605 26.1154 11.6137C26.2875 11.5394 26.4434 11.4319 26.5741 11.2975L26.5284 11.2536L26.5741 11.2982C26.7071 11.1651 26.8125 11.0071 26.8842 10.8332L26.8259 10.809L26.8837 10.8341C26.9615 10.6566 27.0013 10.4648 27.0005 10.271V7.7121H26.9374V7.77584L26.9378 7.77515Z" fill="#095AA5"/>
</svg>
