<svg width="30" height="20" viewBox="0 0 30 20" fill="none" xmlns="http://www.w3.org/2000/svg">
<rect width="30" height="20" rx="4" fill="#F5F5F5"/>
<path d="M16.3595 12.6254C19.2643 12.6393 21.9157 10.2576 21.9157 7.35958C21.9157 4.19053 19.2643 1.99951 16.3595 2.00136H13.8596C13.1515 1.98523 12.4475 2.11281 11.7902 2.37637C11.1328 2.63994 10.5357 3.03404 10.0348 3.53485C9.53404 4.03566 9.13995 4.63278 8.87638 5.29016C8.61281 5.94754 8.48523 6.65152 8.50136 7.35958C8.51664 8.76746 9.08901 10.112 10.0932 11.0988C11.0974 12.0857 12.4517 12.6346 13.8596 12.6254H16.3595Z" fill="#004A98"/>
<path d="M14.9743 10.1809V4.42577C15.5575 4.648 16.0594 5.04217 16.4135 5.55605C16.7676 6.06994 16.9572 6.67928 16.9572 7.30335C16.9572 7.92742 16.7676 8.53677 16.4135 9.05066C16.0594 9.56454 15.5575 9.95871 14.9743 10.1809ZM10.7888 7.30351C10.7898 6.68015 10.9793 6.07169 11.3326 5.55807C11.6858 5.04446 12.1862 4.64974 12.7679 4.42577V10.18C12.1863 9.95627 11.6859 9.56177 11.3327 9.04837C10.9795 8.53496 10.7898 7.9267 10.7888 7.30351ZM13.8713 2.43799C12.9089 2.43762 11.968 2.72268 11.1676 3.25708C10.3673 3.79149 9.74334 4.55125 9.3748 5.44027C9.00626 6.3293 8.90965 7.30765 9.09717 8.25159C9.2847 9.19553 9.74795 10.0626 10.4283 10.7433C11.1087 11.4239 11.9757 11.8875 12.9195 12.0754C13.8634 12.2633 14.8418 12.167 15.731 11.7988C16.6201 11.4306 17.3801 10.807 17.9148 10.0068C18.4495 9.20667 18.7349 8.2659 18.7349 7.30351C18.7349 6.01342 18.2226 4.77613 17.3105 3.86372C16.3985 2.95132 15.1614 2.43848 13.8713 2.43799Z" fill="white"/>
<path d="M3.06703 16.2512C3.06703 16.6845 3.37497 16.7347 3.65212 16.7347C4.86573 16.7347 5.26421 15.8192 5.26421 14.9819C5.26421 13.9315 4.5895 13.1733 3.50615 13.1733C3.27489 13.1733 3.16926 13.1896 3.06764 13.1958L3.06703 16.2512ZM2.51611 13.6164C2.51611 13.1111 2.25221 13.1453 2 13.1394V12.9932C2.21895 13.0043 2.44343 13.0042 2.663 13.0042C2.89827 13.0042 3.21915 12.9932 3.63456 12.9932C5.08929 12.9932 5.88256 13.9647 5.88256 14.96C5.88256 15.5143 5.55645 16.9145 3.56743 16.9145C3.28135 16.9145 3.01622 16.9034 2.75262 16.9034C2.5001 16.9034 2.2522 16.9093 2.0003 16.9145V16.7692C2.33719 16.7353 2.50041 16.7242 2.51642 16.3421L2.51611 13.6164Z" fill="#004A98"/>
<path d="M6.68119 13.4826C6.64266 13.4865 6.60374 13.4822 6.56695 13.4701C6.53015 13.458 6.4963 13.4384 6.46757 13.4124C6.43885 13.3864 6.4159 13.3547 6.40019 13.3193C6.38448 13.2839 6.37636 13.2456 6.37636 13.2068C6.37636 13.1681 6.38448 13.1298 6.40019 13.0944C6.4159 13.059 6.43885 13.0273 6.46757 13.0013C6.4963 12.9753 6.53015 12.9557 6.56695 12.9436C6.60374 12.9315 6.64266 12.9272 6.68119 12.9311C6.75317 12.9316 6.8221 12.9601 6.87342 13.0106C6.92475 13.061 6.95442 13.1295 6.95618 13.2014C6.9562 13.275 6.92743 13.3456 6.87603 13.3981C6.82462 13.4507 6.75469 13.481 6.68119 13.4826ZM6.08008 16.769H6.18663C6.34399 16.769 6.45639 16.769 6.45639 16.5842V15.0605C6.45639 14.8142 6.37232 14.7797 6.16384 14.6676V14.5783C6.42806 14.4988 6.7437 14.3935 6.76495 14.3763C6.79558 14.3576 6.83072 14.3477 6.86657 14.3476C6.89398 14.3476 6.90599 14.3815 6.90599 14.4264V16.5821C6.90599 16.7668 7.02917 16.7668 7.18684 16.7668H7.2823V16.9122C7.09107 16.9122 6.89429 16.9011 6.69258 16.9011C6.49088 16.9011 6.28794 16.9069 6.08039 16.9122L6.08008 16.769Z" fill="#004A98"/>
<path d="M7.81438 15.0938C7.81438 14.8866 7.75279 14.8308 7.48949 14.7243V14.6174C7.74035 14.5403 7.98703 14.4503 8.22856 14.3477C8.2458 14.3477 8.26182 14.3591 8.26182 14.4037V14.7686C8.53098 14.5252 8.87289 14.3772 9.23462 14.3477C9.71163 14.3477 9.8813 14.6959 9.8813 15.1341V16.5833C9.8813 16.7681 10.0045 16.7681 10.1621 16.7681H10.2635V16.9134C10.0664 16.9134 9.8699 16.9024 9.66789 16.9024C9.46588 16.9024 9.26387 16.9082 9.06063 16.9134V16.7681H9.16256C9.31961 16.7681 9.43139 16.7681 9.43139 16.5833V15.1289C9.43139 14.8083 9.23554 14.651 8.91497 14.651C8.67902 14.6878 8.4553 14.7805 8.26244 14.9214V16.5843C8.26244 16.769 8.38561 16.769 8.5439 16.769H8.64552V16.9144C8.44843 16.9144 8.25166 16.9033 8.04964 16.9033C7.84763 16.9033 7.64501 16.9091 7.44238 16.9144V16.769H7.54431C7.70136 16.769 7.81345 16.769 7.81345 16.5843L7.81438 15.0938Z" fill="#004A98"/>
<path d="M11.6854 15.1844C11.8265 15.1844 11.8428 15.1111 11.8428 15.044C11.8485 14.977 11.8401 14.9096 11.8179 14.8462C11.7958 14.7827 11.7604 14.7247 11.7142 14.6759C11.668 14.627 11.612 14.5886 11.5499 14.563C11.4878 14.5373 11.4209 14.5252 11.3538 14.5272C11.011 14.5272 10.7754 14.7798 10.7071 15.1847L11.6854 15.1844ZM10.6911 15.3642C10.6787 15.4724 10.6787 15.5816 10.6911 15.6897C10.7246 16.2237 11.068 16.6619 11.517 16.6619C11.662 16.6534 11.8038 16.6157 11.9339 16.5511C12.0639 16.4864 12.1796 16.3961 12.2739 16.2856L12.3518 16.3638C12.2427 16.5455 12.0913 16.698 11.9105 16.8085C11.7297 16.9189 11.5248 16.984 11.3134 16.9982C10.4204 16.9982 10.2402 16.1335 10.2402 15.7741C10.2402 14.6726 10.9818 14.3471 11.3747 14.3471C11.4957 14.3392 11.6171 14.3561 11.7314 14.3968C11.8457 14.4374 11.9504 14.501 12.0393 14.5836C12.1281 14.6661 12.1992 14.766 12.2481 14.877C12.297 14.988 12.3228 15.1078 12.3238 15.2291C12.3245 15.2629 12.323 15.2967 12.3192 15.3304L12.2684 15.3642H10.6911Z" fill="#004A98"/>
<path d="M12.4551 16.7688H12.6063C12.7639 16.7688 12.876 16.7688 12.876 16.584V15.0058C12.876 14.8321 12.6688 14.7979 12.5838 14.7527V14.6686C12.9937 14.4943 13.2185 14.3486 13.2699 14.3486C13.3032 14.3486 13.3198 14.3659 13.3198 14.4225V14.9279H13.3318C13.471 14.7086 13.7075 14.349 14.0505 14.349C14.0912 14.3471 14.1318 14.3534 14.17 14.3674C14.2081 14.3814 14.2431 14.4029 14.2729 14.4306C14.3027 14.4582 14.3267 14.4916 14.3434 14.5287C14.3602 14.5657 14.3694 14.6058 14.3705 14.6464C14.3724 14.6827 14.3671 14.719 14.3548 14.7533C14.3425 14.7875 14.3235 14.8188 14.2989 14.8456C14.2742 14.8723 14.2445 14.8939 14.2114 14.909C14.1784 14.9241 14.1426 14.9324 14.1063 14.9334C13.932 14.9334 13.932 14.7985 13.7367 14.7985C13.6237 14.8139 13.52 14.8695 13.4447 14.9551C13.3693 15.0408 13.3274 15.1507 13.3266 15.2648V16.5843C13.3266 16.7691 13.4384 16.7691 13.5963 16.7691H13.9107V16.9144C13.6028 16.9092 13.366 16.9033 13.1246 16.9033C12.8939 16.9033 12.6586 16.9092 12.456 16.9144L12.4551 16.7688Z" fill="#004A98"/>
<path d="M14.6178 16.1335C14.6308 16.3149 14.7103 16.4851 14.841 16.6116C14.9716 16.738 15.1443 16.8119 15.3261 16.819C15.3831 16.8274 15.4412 16.8232 15.4965 16.8068C15.5517 16.7905 15.6027 16.7622 15.646 16.7241C15.6892 16.686 15.7236 16.639 15.7468 16.5862C15.77 16.5335 15.7814 16.4763 15.7803 16.4187C15.7803 15.756 14.5562 15.9691 14.5562 15.0637C14.5562 14.749 14.8093 14.345 15.4271 14.345C15.6501 14.3502 15.869 14.406 16.0673 14.5082L16.1067 15.0807H15.9777C15.9748 15.0037 15.9565 14.9281 15.924 14.8583C15.8914 14.7885 15.8452 14.726 15.7881 14.6743C15.731 14.6227 15.6641 14.583 15.5914 14.5575C15.5187 14.5321 15.4417 14.5215 15.3649 14.5263C15.3115 14.5204 15.2576 14.5253 15.2062 14.5409C15.1549 14.5564 15.1073 14.5823 15.0663 14.6169C15.0253 14.6514 14.9917 14.694 14.9677 14.742C14.9437 14.79 14.9297 14.8423 14.9267 14.8959C14.9267 15.5533 16.2299 15.3504 16.2299 16.2324C16.2299 16.6019 15.9327 16.9964 15.2639 16.9964C15.0234 16.9897 14.7882 16.9244 14.5787 16.8064L14.5171 16.1597L14.6178 16.1335Z" fill="#004A98"/>
<path d="M21.3031 14.0111H21.163C21.0561 13.3545 20.5893 13.0903 19.962 13.0903C19.3153 13.0903 18.3773 13.5214 18.3773 14.8714C18.3773 16.0065 19.1863 16.821 20.051 16.821C20.3245 16.8211 20.589 16.723 20.7964 16.5446C21.0038 16.3662 21.1403 16.1194 21.1812 15.8489L21.3102 15.8824L21.1812 16.7025C20.7917 16.8855 20.369 16.9867 19.9389 17C18.6243 17 17.7935 16.1525 17.7935 14.8881C17.7935 13.7361 18.8208 12.9102 19.9217 12.9102C20.3774 12.9343 20.8258 13.0351 21.248 13.2086L21.3031 14.0111Z" fill="#004A98"/>
<path d="M21.5056 16.7688H21.6119C21.7695 16.7688 21.8819 16.7688 21.8819 16.584V13.4553C21.8819 13.0898 21.7979 13.0787 21.5842 13.0171V12.9269C21.7838 12.8637 21.9773 12.7828 22.1625 12.6851C22.2009 12.6597 22.2423 12.639 22.2857 12.6235C22.3201 12.6235 22.3315 12.6571 22.3315 12.7024V16.5825C22.3315 16.7672 22.4547 16.7672 22.6127 16.7672H22.7051V16.9126C22.5148 16.9126 22.3186 16.9015 22.1163 16.9015C21.914 16.9015 21.7119 16.9073 21.5044 16.9126L21.5056 16.7688Z" fill="#004A98"/>
<path d="M25.1123 16.6066C25.1123 16.7083 25.1738 16.7135 25.2696 16.7135C25.3364 16.7135 25.4208 16.7083 25.4941 16.7083V16.8262C25.2207 16.8649 24.9504 16.9228 24.6851 16.9996L24.6568 16.9833V16.5284C24.3962 16.8048 24.0411 16.9731 23.6621 16.9999C23.5761 17.0021 23.4905 16.986 23.4112 16.9526C23.3318 16.9191 23.2605 16.8691 23.202 16.806C23.1435 16.7428 23.0992 16.6678 23.072 16.5861C23.0447 16.5045 23.0352 16.4179 23.0441 16.3323V14.8939C23.0441 14.7479 23.0219 14.6069 22.7075 14.5794V14.4726C22.9095 14.4667 23.3588 14.4332 23.4318 14.4332C23.4934 14.4332 23.4934 14.4726 23.4934 14.5958V16.0453C23.4934 16.2137 23.4934 16.6966 23.9824 16.6966C24.2388 16.6555 24.4762 16.5361 24.662 16.3547V14.843C24.662 14.7313 24.3923 14.6694 24.19 14.613V14.5117C24.6956 14.4778 25.01 14.4329 25.0661 14.4329C25.1116 14.4329 25.1116 14.4723 25.1116 14.5345L25.1123 16.6066Z" fill="#004A98"/>
<path d="M26.2301 16.2801C26.2377 16.4306 26.3011 16.5729 26.4081 16.679C26.5151 16.7852 26.6579 16.8475 26.8084 16.8538C27.4095 16.8538 27.6621 16.2632 27.6621 15.7628C27.6621 15.1567 27.2023 14.6508 26.7641 14.6508C26.5604 14.6731 26.3711 14.7669 26.2301 14.9156V16.2801ZM26.2301 14.7518C26.456 14.527 26.7509 14.3847 27.0674 14.3478C27.2143 14.354 27.3585 14.3897 27.4913 14.4529C27.6241 14.5161 27.7428 14.6054 27.8403 14.7155C27.9378 14.8256 28.0121 14.9542 28.0588 15.0937C28.1055 15.2332 28.1236 15.3806 28.112 15.5272C28.1264 15.8998 27.9935 16.2631 27.7422 16.5385C27.4908 16.8139 27.1411 16.9793 26.7687 16.9989C26.4965 16.9987 26.2286 16.9314 25.9887 16.803L25.8199 16.932L25.702 16.8705C25.7538 16.5397 25.7803 16.2054 25.7811 15.8706V13.455C25.7811 13.0895 25.6964 13.0784 25.4824 13.0168V12.9266C25.6821 12.8635 25.8758 12.7826 26.061 12.6849C26.0995 12.6595 26.1409 12.6388 26.1842 12.6233C26.2178 12.6233 26.2289 12.6569 26.2289 12.7021L26.2301 14.7518Z" fill="#004A98"/>
</svg>
