<svg width="30" height="20" viewBox="0 0 30 20" fill="none" xmlns="http://www.w3.org/2000/svg">
<rect width="30" height="20" rx="4" fill="black"/>
<path d="M3.17059 8.09326H2V12.1779H3.16475C3.69178 12.2065 4.21073 12.0388 4.62134 11.7072C4.85168 11.5153 5.03732 11.2754 5.16525 11.0043C5.29319 10.7332 5.36034 10.4373 5.362 10.1375C5.3628 8.9321 4.46171 8.09326 3.17059 8.09326ZM4.10175 11.1602C3.79452 11.4068 3.40304 11.5234 3.01097 11.4851H2.7968V8.78471H3.01097C3.20559 8.76488 3.40221 8.78386 3.58944 8.84053C3.77667 8.8972 3.9508 8.99045 4.10175 9.11487C4.24153 9.24438 4.35281 9.40159 4.42848 9.57647C4.50415 9.75136 4.54255 9.94008 4.54126 10.1306C4.54299 10.3233 4.50486 10.5142 4.42927 10.6913C4.35368 10.8685 4.24226 11.0282 4.10202 11.1602H4.10175Z" fill="white"/>
<path d="M6.52572 8.09326H5.72998V12.177H6.52572V8.09326Z" fill="white"/>
<path d="M8.47347 9.65952C7.99459 9.48287 7.85492 9.36687 7.85492 9.14579C7.85492 8.88906 8.10473 8.69352 8.44873 8.69352C8.57388 8.69624 8.69678 8.72728 8.8082 8.78433C8.91962 8.84138 9.01666 8.92294 9.09202 9.02288L9.50785 8.47909C9.17791 8.18428 8.75018 8.02261 8.30773 8.02548C8.14652 8.01551 7.98495 8.03822 7.83273 8.09221C7.68051 8.1462 7.54075 8.23037 7.42185 8.33968C7.30295 8.449 7.20735 8.5812 7.14078 8.72836C7.07421 8.87552 7.03803 9.0346 7.03443 9.19608C7.03443 9.76009 7.29144 10.0474 8.03849 10.3167C8.22915 10.3765 8.41365 10.4545 8.58946 10.5494C8.6626 10.5929 8.72315 10.6547 8.76514 10.7287C8.80712 10.8027 8.8291 10.8863 8.8289 10.9714C8.82824 11.0505 8.81143 11.1287 8.7795 11.2012C8.74757 11.2736 8.70121 11.3387 8.64323 11.3926C8.58525 11.4465 8.51688 11.488 8.44232 11.5146C8.36775 11.5412 8.28855 11.5522 8.20956 11.5471C8.02751 11.5502 7.84847 11.5004 7.69415 11.4038C7.53982 11.3072 7.41685 11.1679 7.34012 11.0028L6.82666 11.4995C6.97141 11.7436 7.17896 11.9445 7.4277 12.0812C7.67644 12.2178 7.95726 12.2853 8.24095 12.2766C8.42342 12.2892 8.6065 12.2636 8.77855 12.2015C8.9506 12.1395 9.10784 12.0423 9.24027 11.9161C9.3727 11.79 9.47743 11.6376 9.54777 11.4688C9.61811 11.3 9.65253 11.1183 9.64885 10.9355C9.64885 10.2855 9.38015 9.99101 8.47347 9.65952Z" fill="white"/>
<path d="M9.89948 10.1373C9.89723 10.4198 9.95161 10.6999 10.0594 10.9611C10.1672 11.2223 10.3262 11.4592 10.5271 11.6579C10.728 11.8566 10.9666 12.013 11.2289 12.1179C11.4913 12.2229 11.772 12.2742 12.0544 12.2688C12.4016 12.2692 12.7439 12.1871 13.0532 12.0294V11.0921C12.9342 11.2313 12.7867 11.3431 12.6207 11.4202C12.4546 11.4972 12.2739 11.5376 12.0909 11.5386C11.9061 11.5439 11.7223 11.5109 11.551 11.4415C11.3796 11.3721 11.2246 11.2679 11.0956 11.1355C10.9667 11.003 10.8667 10.8453 10.8018 10.6722C10.737 10.4991 10.7089 10.3144 10.7192 10.1298C10.7132 9.94971 10.7431 9.7702 10.8073 9.60177C10.8714 9.43335 10.9685 9.27939 11.0928 9.14889C11.2171 9.01839 11.3662 8.91396 11.5313 8.84171C11.6964 8.76945 11.8742 8.73082 12.0544 8.72806C12.244 8.7294 12.431 8.77104 12.6032 8.85021C12.7754 8.92938 12.9288 9.04426 13.0532 9.18725V8.25024C12.7528 8.08557 12.4156 7.99955 12.0731 8.00016C11.7897 7.99668 11.5085 8.04931 11.2456 8.15503C10.9827 8.26075 10.7433 8.41746 10.5413 8.61613C10.3392 8.81479 10.1785 9.05149 10.0683 9.31256C9.95818 9.57364 9.90079 9.85394 9.89948 10.1373Z" fill="white"/>
<path d="M19.507 10.8362L18.4163 8.09302H17.5474L19.2806 12.2814H19.709L21.4729 8.09302H20.6098L19.507 10.8362Z" fill="white"/>
<path d="M21.835 12.1778H24.0942V11.4861H22.631V10.3833H24.0386V9.69163H22.631V8.78522H24.0942V8.09351H21.835V12.1778Z" fill="white"/>
<path d="M27.2466 9.29871C27.2466 8.53357 26.7206 8.09326 25.8017 8.09326H24.6196V12.1779H25.4164V10.5369H25.5207L26.6221 12.1779H27.6023L26.3154 10.4576C26.5888 10.419 26.8373 10.2777 27.0103 10.0624C27.1832 9.84712 27.2677 9.57405 27.2466 9.29871ZM25.6479 9.9726H25.4162V8.73549H25.6612C26.1576 8.73549 26.4277 8.94461 26.4277 9.34155C26.4277 9.75205 26.1576 9.9726 25.6479 9.9726Z" fill="white"/>
<path d="M27.8085 8.39756C27.8085 8.32626 27.7609 8.28662 27.6729 8.28662H27.5571V8.64711H27.6423V8.50691L27.7428 8.64711H27.8492L27.7287 8.49813C27.7518 8.49359 27.7725 8.48097 27.7872 8.46254C27.8018 8.44412 27.8094 8.42107 27.8085 8.39756ZM27.6582 8.44652H27.6423V8.3534H27.6593C27.7013 8.3534 27.7229 8.3683 27.7229 8.39889C27.7229 8.42949 27.7005 8.44545 27.6577 8.44545L27.6582 8.44652Z" fill="white"/>
<path d="M27.6898 8.15188C27.6274 8.15104 27.5662 8.16876 27.514 8.2028C27.4617 8.23684 27.4207 8.28565 27.3963 8.34303C27.3718 8.40041 27.365 8.46377 27.3766 8.52505C27.3883 8.58633 27.4179 8.64276 27.4617 8.68716C27.5055 8.73157 27.5615 8.76194 27.6226 8.77443C27.6837 8.78691 27.7472 8.78093 27.8049 8.75726C27.8626 8.73359 27.912 8.6933 27.9467 8.64149C27.9815 8.58969 28 8.52873 28 8.46635C28.0005 8.38353 27.9681 8.3039 27.91 8.24494C27.8518 8.18599 27.7726 8.15252 27.6898 8.15188ZM27.6898 8.72388C27.6385 8.7259 27.5877 8.71251 27.544 8.68543C27.5003 8.65835 27.4658 8.61882 27.4447 8.57193C27.4237 8.52504 27.4172 8.47292 27.426 8.4223C27.4348 8.37167 27.4586 8.32484 27.4943 8.28784C27.5299 8.25083 27.5759 8.22535 27.6261 8.21465C27.6764 8.20396 27.7287 8.20855 27.7763 8.22783C27.824 8.24711 27.8647 8.28021 27.8934 8.32285C27.9221 8.3655 27.9374 8.41576 27.9372 8.46715C27.9381 8.53394 27.9126 8.59838 27.8662 8.64645C27.8198 8.69452 27.7563 8.72234 27.6895 8.72388H27.6898Z" fill="white"/>
<path d="M15.5329 8.0172C14.966 8.00687 14.4182 8.22212 14.0099 8.6156C13.6017 9.00908 13.3664 9.54859 13.3559 10.1155C13.3405 10.5486 13.4549 10.9765 13.6843 11.3442C13.9137 11.712 14.2478 12.0028 14.6436 12.1793C15.0394 12.3559 15.479 12.4103 15.9059 12.3354C16.3328 12.2605 16.7276 12.0598 17.0396 11.759C17.3517 11.4582 17.5668 11.0711 17.6574 10.6472C17.7479 10.2234 17.7098 9.78211 17.5479 9.38005C17.386 8.978 17.1077 8.63347 16.7487 8.39065C16.3897 8.14783 15.9663 8.01779 15.5329 8.0172Z" fill="#F48120"/>
</svg>
