<svg width="30" height="20" viewBox="0 0 30 20" fill="none" xmlns="http://www.w3.org/2000/svg">
<rect width="30" height="20" rx="4" fill="#F1EFEA"/>
<path d="M19.3827 15.4987C19.4706 15.4993 19.5577 15.5161 19.6399 15.5484L19.5281 15.9173C19.4568 15.8859 19.3799 15.8705 19.3025 15.872C19.0671 15.872 18.9484 16.037 18.9484 16.335V17.3442H18.5884V15.5442H18.946V15.7625C18.9885 15.6812 19.0519 15.6137 19.1291 15.5672C19.2063 15.5207 19.2943 15.4971 19.3836 15.499L19.3827 15.4987ZM18.0491 15.9021H17.4593V16.7155C17.4593 16.8959 17.5178 17.0153 17.6992 17.0153C17.8122 17.0117 17.9222 16.9775 18.0183 16.916L18.1218 17.251C17.9877 17.342 17.8309 17.3905 17.6707 17.3906C17.2431 17.3906 17.0948 17.1422 17.0948 16.724V15.9043H16.7589V15.5464H17.0948V15H17.4588V15.5464H18.0486L18.0491 15.9021ZM13.4282 16.2848C13.4318 16.1666 13.4802 16.0545 13.5628 15.9728C13.6455 15.8911 13.7559 15.8464 13.8702 15.8482C14.1032 15.8482 14.252 16.0059 14.2903 16.2848H13.4282ZM14.6642 16.4433C14.6608 15.8817 14.3419 15.4977 13.8767 15.4977C13.3915 15.4977 13.0508 15.8817 13.0508 16.4433C13.0407 16.5646 13.0553 16.6867 13.0937 16.8017C13.1321 16.9168 13.1934 17.0222 13.2736 17.1111C13.3538 17.2001 13.4512 17.2706 13.5594 17.3182C13.6677 17.3657 13.7843 17.3892 13.9019 17.3871C14.1512 17.396 14.3944 17.3059 14.5816 17.1353L14.4046 16.8454C14.2696 16.9636 14.0995 17.0302 13.9228 17.034C13.8007 17.0428 13.6802 17.0016 13.5874 16.9192C13.4945 16.8367 13.4367 16.7198 13.4266 16.5936H14.6575C14.6608 16.5439 14.6642 16.4957 14.6642 16.4431V16.4433ZM16.2509 16.002C16.095 15.9038 15.9166 15.8506 15.7341 15.848C15.5361 15.848 15.4176 15.9267 15.4176 16.0591C15.4176 16.1785 15.5428 16.2131 15.699 16.2357L15.8687 16.262C16.2303 16.3181 16.4484 16.484 16.4484 16.8C16.4484 17.1432 16.171 17.3879 15.6926 17.3879C15.4347 17.3948 15.1821 17.3125 14.9744 17.1542L15.1438 16.8489C15.301 16.9762 15.4962 17.0429 15.6957 17.0374C15.9421 17.0374 16.0741 16.9587 16.0741 16.8191C16.0741 16.7175 15.9798 16.6606 15.7816 16.6306L15.6122 16.6045C15.2405 16.5484 15.0385 16.3671 15.0385 16.0735C15.0385 15.7156 15.3108 15.4972 15.73 15.4972C15.9686 15.4887 16.2041 15.5543 16.4064 15.6855L16.2509 16.002ZM20.7021 15.8696C20.6311 15.8691 20.5607 15.8833 20.495 15.9113C20.4328 15.9394 20.3766 15.98 20.3297 16.0308C20.2821 16.0838 20.2449 16.146 20.2203 16.2138C20.1668 16.3653 20.1668 16.5315 20.2203 16.683C20.2451 16.751 20.2823 16.8135 20.3297 16.867C20.3764 16.9179 20.4327 16.9583 20.495 16.9858C20.5605 17.0145 20.631 17.0291 20.7021 17.0285C20.7732 17.0288 20.8436 17.0143 20.9092 16.9858C20.9716 16.9584 21.0279 16.918 21.0745 16.867C21.1236 16.8144 21.1614 16.7517 21.1856 16.683C21.2402 16.5317 21.2402 16.3651 21.1856 16.2138C21.1616 16.1453 21.1237 16.0829 21.0745 16.0308C21.0277 15.9799 20.9715 15.9392 20.9092 15.9113C20.8435 15.8835 20.7731 15.8693 20.7021 15.8696ZM20.7021 15.497C20.8249 15.4962 20.9466 15.5215 21.0596 15.5715C21.1664 15.617 21.2631 15.6846 21.3437 15.7702C21.4253 15.8564 21.4895 15.9587 21.5323 16.071C21.6226 16.3142 21.6226 16.5834 21.5323 16.8266C21.4895 16.9388 21.4253 17.0411 21.3437 17.1273C21.2632 17.2134 21.1665 17.2815 21.0596 17.3275C20.8305 17.4242 20.5739 17.4242 20.3448 17.3275C20.2382 17.2811 20.1416 17.213 20.0607 17.1273C19.9804 17.0403 19.9169 16.9383 19.8736 16.8266C19.7846 16.5831 19.7846 16.3144 19.8736 16.071C19.9169 15.9593 19.9804 15.8572 20.0607 15.7702C20.1417 15.685 20.2383 15.6174 20.3448 15.5715C20.4577 15.5214 20.5795 15.496 20.7023 15.497H20.7021ZM11.3206 16.4426C11.3306 16.3423 11.3684 16.2473 11.4295 16.1688C11.4906 16.0904 11.5723 16.032 11.6648 16.0006C11.7573 15.9692 11.8566 15.9662 11.9507 15.992C12.0448 16.0178 12.1297 16.0712 12.1951 16.1459C12.2604 16.2205 12.3035 16.3131 12.3191 16.4126C12.3347 16.5121 12.3222 16.6141 12.283 16.7063C12.2438 16.7985 12.1796 16.877 12.0983 16.9323C12.0169 16.9876 11.9218 17.0173 11.8245 17.0178C11.754 17.017 11.6845 17.0012 11.6203 16.9713C11.5561 16.9414 11.4985 16.8981 11.4512 16.8441C11.4039 16.7901 11.3678 16.7265 11.3454 16.6574C11.3229 16.5884 11.3145 16.5152 11.3206 16.4426ZM12.6643 16.4426V15.5422H12.3043V15.7605C12.2444 15.6756 12.1652 15.6071 12.0738 15.5612C11.9823 15.5152 11.8814 15.4932 11.7798 15.497C11.5529 15.5199 11.3424 15.6293 11.1892 15.8041C11.0361 15.9788 10.9512 16.2064 10.9512 16.4423C10.9512 16.6783 11.0361 16.9058 11.1892 17.0806C11.3424 17.2553 11.5529 17.3648 11.7798 17.3876C11.8814 17.3913 11.9822 17.3691 12.0736 17.3232C12.1651 17.2773 12.2443 17.2089 12.3043 17.1241V17.3424H12.6643V16.4426ZM10.6307 17.3422V16.2126C10.6344 16.0611 10.5902 15.9126 10.5048 15.7895C10.4195 15.6665 10.2976 15.5757 10.1578 15.5309C10.018 15.4861 9.86792 15.4897 9.73032 15.5413C9.59273 15.5929 9.47516 15.6896 9.39551 15.8167C9.34117 15.7164 9.26123 15.6335 9.16444 15.5772C9.06766 15.5208 8.95775 15.493 8.84676 15.497C8.74998 15.4927 8.65384 15.5152 8.56826 15.5622C8.48268 15.6091 8.41076 15.6789 8.35991 15.7643V15.5422H8V17.3422H8.36567V16.3447C8.36567 16.0322 8.52427 15.8653 8.76974 15.8653C9.00968 15.8653 9.13229 16.0347 9.13229 16.34V17.3419H9.49628V16.3445C9.49628 16.032 9.66424 15.8651 9.90227 15.8651C10.1494 15.8651 10.2663 16.0345 10.2663 16.3397V17.3417L10.6307 17.3422Z" fill="black"/>
<path d="M14.9892 12.8978C16.3108 12.8978 17.3822 10.7629 17.3822 8.12933C17.3822 5.49576 16.3108 3.36084 14.9892 3.36084C13.6676 3.36084 12.5962 5.49576 12.5962 8.12933C12.5962 10.7629 13.6676 12.8978 14.9892 12.8978Z" fill="#57569F"/>
<path d="M12.8181 8.12989C12.8208 7.19879 13.0381 6.28085 13.4531 5.44737C13.8681 4.61388 14.4697 3.88729 15.2111 3.32401C14.0905 2.4623 12.7157 1.99681 11.3021 2.00051C7.82039 2.00051 5 4.74472 5 8.12989C5 11.5151 7.82156 14.2593 11.3021 14.2593C12.7157 14.263 14.0905 13.7975 15.2111 12.9358C14.4697 12.3725 13.8681 11.6459 13.4531 10.8124C13.0381 9.97893 12.8208 9.06098 12.8181 8.12989Z" fill="#C20010"/>
<path d="M24.5501 11.4465V11.2621H24.4756V11.2112H24.6798V11.2619H24.6053V11.4463L24.5501 11.4465ZM24.945 11.4465V11.2829L24.8922 11.4231H24.8338L24.7808 11.2829V11.4465H24.7256V11.2112H24.8046L24.863 11.3619L24.921 11.2112H24.9999V11.4465H24.945Z" fill="#0087CC"/>
<path d="M18.6757 2.00002C17.2621 1.99636 15.8872 2.46185 14.7666 3.32352C15.51 3.88493 16.113 4.61114 16.5282 5.44505C16.9435 6.27896 17.1596 7.19783 17.1596 8.1294C17.1596 9.06096 16.9435 9.97983 16.5282 10.8137C16.113 11.6476 15.51 12.3739 14.7666 12.9353C15.8872 13.797 17.2621 14.2625 18.6757 14.2588C22.1562 14.2588 24.9777 11.5146 24.9777 8.1294C24.9777 4.74423 22.1562 2.00002 18.6757 2.00002Z" fill="#0087CC"/>
</svg>
