<svg width="30" height="20" viewBox="0 0 30 20" fill="none" xmlns="http://www.w3.org/2000/svg">
<rect width="30" height="20" rx="4" fill="#F1EFEA"/>
<path d="M8.50334 15.9153C8.44381 15.856 8.37281 15.8094 8.29468 15.7784C8.2105 15.7451 8.12067 15.7285 8.03016 15.7295C7.97725 15.7297 7.92443 15.7341 7.8722 15.7426C7.817 15.7517 7.7631 15.7673 7.71167 15.7894C7.65765 15.8125 7.60728 15.8434 7.56212 15.881C7.51266 15.9225 7.47089 15.9724 7.43874 16.0284C7.38336 15.9363 7.30428 15.8606 7.20975 15.8094C7.10827 15.7552 6.99461 15.7279 6.87958 15.73C6.83626 15.7302 6.79303 15.734 6.75036 15.7415C6.70481 15.7493 6.66034 15.7625 6.61786 15.7807C6.52213 15.8218 6.44079 15.8905 6.3842 15.9779V15.7737H6.03369V17.4458H6.3884V16.5191C6.38733 16.4544 6.39884 16.3901 6.42229 16.3298C6.44264 16.2779 6.47342 16.2306 6.51271 16.191C6.55042 16.1538 6.59557 16.125 6.6452 16.1064C6.69703 16.0869 6.752 16.0771 6.80737 16.0775C6.85921 16.0745 6.91105 16.0832 6.95912 16.1029C7.00718 16.1225 7.05025 16.1526 7.0852 16.191C7.15664 16.2836 7.19179 16.3991 7.18405 16.5158V17.4461H7.53876V16.5193C7.53765 16.4546 7.54915 16.3904 7.57264 16.3301C7.59296 16.2781 7.62374 16.2309 7.66307 16.1913C7.70077 16.154 7.74593 16.1252 7.79556 16.1067C7.84739 16.0872 7.90235 16.0774 7.95773 16.0777C8.00956 16.0749 8.06137 16.0836 8.10941 16.1032C8.15746 16.1229 8.20055 16.1529 8.23556 16.1913C8.307 16.2839 8.34215 16.3994 8.3344 16.5161V17.4463H8.68911V16.3948C8.69017 16.303 8.67384 16.2118 8.64097 16.1261C8.61018 16.0471 8.56331 15.9753 8.50334 15.9153Z" fill="black"/>
<path d="M10.2945 15.9753C10.2362 15.9007 10.1624 15.8396 10.0782 15.7963C9.98215 15.7492 9.87616 15.7261 9.76926 15.729C9.65869 15.7279 9.54905 15.7493 9.44702 15.7919C9.34498 15.8346 9.25268 15.8975 9.17574 15.9769C9.09866 16.0571 9.03815 16.1516 8.99768 16.2552C8.91158 16.483 8.91158 16.7343 8.99768 16.9621C9.03815 17.0657 9.09865 17.1604 9.17574 17.2406C9.2527 17.32 9.345 17.3829 9.44703 17.4255C9.54906 17.4682 9.65869 17.4896 9.76926 17.4885C9.87605 17.4914 9.98198 17.4687 10.0782 17.4222C10.1625 17.3794 10.2364 17.3186 10.2945 17.2441V17.4448H10.6593V15.7727H10.2945V15.9753ZM10.2805 16.8219C10.2576 16.8846 10.2226 16.9421 10.1775 16.9913C10.1328 17.0393 10.0787 17.0777 10.0186 17.1039C9.95224 17.1312 9.88113 17.1452 9.80938 17.1448C9.73763 17.1445 9.66665 17.13 9.60055 17.102C9.54043 17.0751 9.48662 17.0358 9.44259 16.9868C9.39864 16.9371 9.36483 16.8792 9.34305 16.8165C9.29647 16.6819 9.29647 16.5356 9.34305 16.401C9.36486 16.3384 9.39867 16.2806 9.44259 16.2309C9.48661 16.1819 9.54042 16.1427 9.60055 16.1157C9.66666 16.0878 9.73765 16.0733 9.8094 16.073C9.88116 16.0727 9.95226 16.0867 10.0186 16.1141C10.0787 16.1403 10.1328 16.1787 10.1775 16.2267C10.2226 16.2758 10.2576 16.3333 10.2805 16.3959C10.3295 16.5337 10.3295 16.6841 10.2805 16.8219Z" fill="black"/>
<path d="M12.2827 16.6064C12.1562 16.5174 12.0089 16.4624 11.8551 16.4468L11.6821 16.4206C11.6438 16.4148 11.6078 16.4081 11.574 16.4005C11.5437 16.3942 11.5144 16.3839 11.4868 16.3699C11.4638 16.3583 11.4438 16.3416 11.4284 16.3211C11.4134 16.2996 11.4057 16.2738 11.4067 16.2477C11.4067 16.2185 11.4143 16.1899 11.4289 16.1646C11.4434 16.1394 11.4644 16.1184 11.4896 16.1037C11.5605 16.0631 11.6417 16.044 11.7233 16.0488C11.7751 16.0488 11.8268 16.0535 11.8777 16.0628C11.9263 16.0716 11.9744 16.0833 12.0217 16.0977C12.064 16.1106 12.1054 16.1262 12.1457 16.1444C12.1777 16.1587 12.2089 16.1747 12.2392 16.1923L12.3962 15.9077C12.3018 15.8487 12.1988 15.8048 12.0908 15.7775C11.9695 15.7459 11.8445 15.7302 11.7191 15.7308C11.6217 15.7295 11.5247 15.7421 11.431 15.7682C11.3526 15.79 11.2789 15.8262 11.2136 15.8747C11.155 15.9192 11.1077 15.9769 11.0758 16.0432C11.043 16.1131 11.0265 16.1895 11.0276 16.2666C11.0255 16.3284 11.0374 16.39 11.0623 16.4466C11.0872 16.5032 11.1246 16.5535 11.1716 16.5937C11.294 16.6878 11.4409 16.7446 11.5948 16.7573L11.7693 16.7807C11.8465 16.7873 11.9214 16.8101 11.9892 16.8477C12.01 16.8595 12.0274 16.8764 12.0397 16.8969C12.052 16.9174 12.0588 16.9407 12.0593 16.9646C12.059 16.996 12.0498 17.0267 12.0328 17.0531C12.0158 17.0795 11.9917 17.1006 11.9633 17.1139C11.8745 17.1558 11.7766 17.1746 11.6786 17.1688C11.617 17.1693 11.5554 17.1646 11.4945 17.1548C11.4441 17.1463 11.3945 17.1338 11.3461 17.1172C11.3045 17.1029 11.2642 17.0848 11.2258 17.0632C11.1915 17.0436 11.1586 17.0217 11.1272 16.9978L10.958 17.2718C11.0167 17.3162 11.0805 17.3532 11.1482 17.3819C11.2116 17.4088 11.277 17.4307 11.3438 17.4473C11.4034 17.4624 11.4641 17.4729 11.5254 17.4789C11.5824 17.4842 11.6324 17.4868 11.6754 17.4868C11.784 17.4882 11.8924 17.4747 11.9974 17.4466C12.0833 17.4241 12.1643 17.3859 12.2364 17.334C12.2985 17.2886 12.3493 17.2294 12.3848 17.1611C12.4194 17.0927 12.4371 17.0169 12.4362 16.9403C12.4392 16.8764 12.4268 16.8127 12.4001 16.7546C12.3734 16.6965 12.3331 16.6457 12.2827 16.6064Z" fill="black"/>
<path d="M15.6089 15.9725C15.5398 15.8952 15.4546 15.8338 15.3593 15.7926C15.2581 15.7493 15.149 15.7276 15.039 15.7288C14.9233 15.7274 14.8085 15.7491 14.7013 15.7926C14.602 15.8334 14.5125 15.8947 14.4387 15.9725C14.3635 16.0529 14.3053 16.1475 14.2676 16.2508C14.2258 16.3654 14.2052 16.4866 14.2066 16.6086C14.205 16.7319 14.2263 16.8544 14.2695 16.9699C14.3084 17.0736 14.3684 17.1681 14.4457 17.2474C14.5224 17.325 14.6146 17.3857 14.7163 17.4255C14.8264 17.4684 14.9437 17.4897 15.0619 17.4884C15.1845 17.489 15.3066 17.4713 15.424 17.436C15.544 17.3981 15.6549 17.3357 15.7495 17.2528L15.568 16.9927C15.4985 17.0484 15.4203 17.0924 15.3367 17.1229C15.256 17.1533 15.1705 17.1691 15.0843 17.1696C15.0264 17.1702 14.9688 17.1623 14.9132 17.1463C14.8595 17.1305 14.8091 17.1047 14.7649 17.0703C14.7189 17.0341 14.6804 16.9893 14.6513 16.9385C14.6177 16.8786 14.5958 16.8129 14.5868 16.7448H15.8227C15.825 16.7238 15.8269 16.7018 15.8278 16.6785C15.8288 16.6551 15.8297 16.6317 15.8297 16.6084C15.8312 16.4869 15.8114 16.366 15.7713 16.2513C15.7356 16.1488 15.6805 16.0541 15.6089 15.9725ZM14.5887 16.4656C14.5971 16.4081 14.6136 16.352 14.6375 16.299C14.6595 16.2504 14.69 16.206 14.7275 16.1681C14.7648 16.1311 14.8093 16.1023 14.8583 16.0835C14.9138 16.0629 14.9727 16.0528 15.0319 16.0539C15.0842 16.0518 15.1364 16.0603 15.1853 16.0789C15.2342 16.0975 15.2789 16.1258 15.3166 16.162C15.3954 16.2452 15.4446 16.3519 15.4568 16.4658L14.5887 16.4656Z" fill="black"/>
<path d="M20.3234 15.9753C20.265 15.9007 20.1912 15.8396 20.107 15.7963C20.011 15.7492 19.905 15.7261 19.7981 15.729C19.6875 15.7279 19.5779 15.7493 19.4758 15.7919C19.3738 15.8346 19.2815 15.8975 19.2046 15.9769C19.1275 16.0571 19.067 16.1516 19.0265 16.2552C18.9404 16.483 18.9404 16.7343 19.0265 16.9621C19.067 17.0657 19.1275 17.1604 19.2046 17.2406C19.2815 17.32 19.3738 17.3829 19.4759 17.4255C19.5779 17.4682 19.6875 17.4896 19.7981 17.4885C19.9049 17.4914 20.0108 17.4686 20.107 17.4222C20.1913 17.3795 20.2652 17.3187 20.3234 17.2441V17.4448H20.6881V15.7727H20.3234V15.9753ZM20.3094 16.8219C20.2864 16.8846 20.2514 16.9421 20.2063 16.9913C20.1616 17.0393 20.1075 17.0777 20.0474 17.1039C19.9811 17.1312 19.91 17.1452 19.8382 17.1448C19.7664 17.1445 19.6955 17.13 19.6294 17.102C19.5693 17.0751 19.5154 17.0358 19.4714 16.9868C19.4275 16.9371 19.3936 16.8792 19.3719 16.8165C19.3253 16.6819 19.3253 16.5356 19.3719 16.401C19.3937 16.3384 19.4275 16.2806 19.4714 16.2309C19.5154 16.1819 19.5692 16.1427 19.6294 16.1157C19.6955 16.0878 19.7665 16.0733 19.8382 16.073C19.91 16.0727 19.9811 16.0867 20.0474 16.1141C20.1075 16.1403 20.1616 16.1787 20.2063 16.2267C20.2514 16.2758 20.2864 16.3333 20.3094 16.3959C20.3582 16.5337 20.3582 16.6841 20.3094 16.8219Z" fill="black"/>
<path d="M13.802 17.1117C13.7466 17.1331 13.6878 17.1443 13.6284 17.1448C13.5929 17.1452 13.5578 17.1392 13.5244 17.1273C13.4926 17.1159 13.4639 17.097 13.4407 17.0724C13.4151 17.0446 13.3958 17.0116 13.384 16.9757C13.3689 16.9294 13.3618 16.881 13.3629 16.8324V16.1045H13.949V15.773H13.3629V15.2668H12.9965V15.773H12.6631V16.1045H12.9965V16.8394C12.9892 16.9276 12.9993 17.0164 13.0264 17.1006C13.0536 17.1848 13.0971 17.2628 13.1545 17.3301C13.2138 17.385 13.2835 17.4273 13.3596 17.4544C13.4357 17.4816 13.5164 17.493 13.5971 17.4881C13.6944 17.4896 13.7911 17.473 13.8824 17.4393C13.936 17.4187 13.9881 17.3942 14.0382 17.3661L13.9134 17.0607C13.8774 17.0801 13.8402 17.0971 13.802 17.1117Z" fill="black"/>
<path d="M17.0061 15.7296C16.9107 15.7282 16.816 15.7472 16.7285 15.7854C16.643 15.8359 16.5715 15.9072 16.5208 15.9927V15.7733H16.1899V17.4454H16.5246V16.5254C16.5235 16.4608 16.5336 16.3965 16.5542 16.3352C16.5719 16.2835 16.5998 16.2358 16.6363 16.195C16.671 16.1568 16.714 16.127 16.762 16.1079C16.813 16.0877 16.8676 16.0776 16.9225 16.0782C16.9706 16.0786 17.0186 16.0838 17.0657 16.0939C17.0905 16.0989 17.1149 16.1054 17.1389 16.1135L17.2468 15.7644C17.2176 15.7546 17.1877 15.7468 17.1573 15.741C17.1073 15.733 17.0568 15.7292 17.0061 15.7296Z" fill="black"/>
<path d="M21.9004 15.7296C21.805 15.7282 21.7103 15.7472 21.6228 15.7854C21.5372 15.8359 21.4658 15.9072 21.4151 15.9927V15.7733H21.084V17.4454H21.4186V16.5254C21.4176 16.4608 21.4276 16.3965 21.4483 16.3352C21.466 16.2835 21.4939 16.2358 21.5303 16.195C21.565 16.1568 21.608 16.127 21.656 16.1079C21.7071 16.0877 21.7616 16.0776 21.8165 16.0782C21.8646 16.0786 21.9125 16.0838 21.9595 16.0939C21.9844 16.0989 22.0089 16.1054 22.0329 16.1135L22.1409 15.7644C22.1116 15.7545 22.0817 15.7467 22.0514 15.741C22.0015 15.733 21.951 15.7292 21.9004 15.7296Z" fill="black"/>
<path d="M23.6044 15.0933V15.9754C23.546 15.9007 23.4722 15.8397 23.388 15.7964C23.2919 15.7493 23.1858 15.7262 23.0788 15.7291C22.9683 15.728 22.8586 15.7495 22.7566 15.7921C22.6546 15.8347 22.5623 15.8976 22.4853 15.977C22.4082 16.0572 22.3477 16.1517 22.3073 16.2553C22.2211 16.4831 22.2211 16.7344 22.3073 16.9622C22.3477 17.0658 22.4082 17.1604 22.4853 17.2407C22.5623 17.3201 22.6546 17.383 22.7566 17.4256C22.8586 17.4682 22.9683 17.4897 23.0788 17.4886C23.1857 17.4915 23.2917 17.4687 23.388 17.4223C23.4723 17.3795 23.5462 17.3187 23.6044 17.2442V17.4449H23.9691V15.0933H23.6044ZM23.5903 16.8224C23.5674 16.8851 23.5324 16.9427 23.4873 16.9918C23.4426 17.0399 23.3885 17.0782 23.3284 17.1045C23.262 17.1318 23.1909 17.1457 23.1192 17.1454C23.0474 17.1451 22.9764 17.1305 22.9104 17.1026C22.8502 17.0756 22.7964 17.0364 22.7524 16.9874C22.7085 16.9376 22.6748 16.8797 22.6531 16.817C22.6065 16.6825 22.6065 16.5362 22.6531 16.4016C22.6748 16.339 22.7086 16.2812 22.7524 16.2315C22.7964 16.1825 22.8502 16.1432 22.9104 16.1163C22.9765 16.0883 23.0474 16.0738 23.1192 16.0735C23.191 16.0733 23.2621 16.0872 23.3284 16.1146C23.3885 16.1409 23.4426 16.1792 23.4873 16.2273C23.5324 16.2763 23.5674 16.3338 23.5903 16.3964C23.6393 16.5342 23.6393 16.6846 23.5903 16.8224Z" fill="black"/>
<path d="M17.8416 16.2222C17.8888 16.1746 17.9453 16.1371 18.0075 16.1122C18.0735 16.0856 18.1441 16.0723 18.2153 16.0729C18.2932 16.0722 18.3706 16.0855 18.4438 16.1122C18.5089 16.1358 18.569 16.1716 18.6209 16.2176L18.7964 15.9255C18.7289 15.8718 18.654 15.8282 18.5739 15.796C18.3432 15.7063 18.0873 15.7063 17.8566 15.796C17.7504 15.8383 17.6537 15.9012 17.572 15.9811C17.4919 16.0606 17.4284 16.1552 17.385 16.2594C17.2942 16.4833 17.2942 16.7337 17.385 16.9576C17.4284 17.0618 17.4919 17.1564 17.572 17.2359C17.6537 17.3158 17.7504 17.3787 17.8566 17.421C18.0873 17.5105 18.3432 17.5105 18.5739 17.421C18.6539 17.3888 18.7289 17.3452 18.7964 17.2915L18.6209 16.9994C18.569 17.0454 18.5089 17.0812 18.4438 17.1048C18.3706 17.1315 18.2932 17.1448 18.2153 17.1441C18.1441 17.1447 18.0735 17.1314 18.0075 17.1048C17.9453 17.0798 17.8888 17.0424 17.8416 16.9947C17.7941 16.9462 17.7566 16.8887 17.7316 16.8256C17.678 16.6856 17.678 16.5309 17.7316 16.3909C17.7567 16.328 17.7941 16.2706 17.8416 16.2222Z" fill="black"/>
<path d="M14.9892 12.8978C16.3108 12.8978 17.3822 10.7629 17.3822 8.12933C17.3822 5.49576 16.3108 3.36084 14.9892 3.36084C13.6676 3.36084 12.5962 5.49576 12.5962 8.12933C12.5962 10.7629 13.6676 12.8978 14.9892 12.8978Z" fill="#E54800"/>
<path d="M12.8181 8.12989C12.8208 7.19879 13.0381 6.28085 13.4531 5.44737C13.8681 4.61388 14.4697 3.88729 15.2111 3.32401C14.0905 2.4623 12.7157 1.99681 11.3021 2.00051C7.82039 2.00051 5 4.74472 5 8.12989C5 11.5151 7.82156 14.2593 11.3021 14.2593C12.7157 14.263 14.0905 13.7975 15.2111 12.9358C14.4697 12.3725 13.8681 11.6459 13.4531 10.8124C13.0381 9.97893 12.8208 9.06098 12.8181 8.12989Z" fill="#D90010"/>
<path d="M24.5501 11.4465V11.2621H24.4756V11.2112H24.6798V11.2619H24.6053V11.4463L24.5501 11.4465ZM24.945 11.4465V11.2829L24.8922 11.4231H24.8338L24.7808 11.2829V11.4465H24.7256V11.2112H24.8046L24.863 11.3619L24.921 11.2112H24.9999V11.4465H24.945Z" fill="#F78B00"/>
<path d="M18.6757 2.00002C17.2621 1.99636 15.8872 2.46185 14.7666 3.32352C15.51 3.88493 16.113 4.61114 16.5282 5.44505C16.9435 6.27896 17.1596 7.19783 17.1596 8.1294C17.1596 9.06096 16.9435 9.97983 16.5282 10.8137C16.113 11.6476 15.51 12.3739 14.7666 12.9353C15.8872 13.797 17.2621 14.2625 18.6757 14.2588C22.1562 14.2588 24.9777 11.5146 24.9777 8.1294C24.9777 4.74423 22.1562 2.00002 18.6757 2.00002Z" fill="#F78B00"/>
</svg>
