<svg width="30" height="20" viewBox="0 0 30 20" fill="none" xmlns="http://www.w3.org/2000/svg">
<rect x="0.5" y="0.5" width="29" height="19" rx="3.5" fill="white" stroke="#002F79"/>
<path d="M25.2273 9.6149C25.2273 5.97073 20.6991 3 15.1136 3C9.52817 3 5 5.97199 5 9.6149C5 9.70912 5 9.96901 5 10.0025C5 13.8687 8.9578 17 15.1136 17C21.3074 17 25.2311 13.8693 25.2311 10.0032L25.2273 9.6149Z" fill="#002F79"/>
<path d="M24.8372 9.6122C24.8372 13.0477 20.4835 15.8332 15.1124 15.8332C9.74135 15.8332 5.3877 13.0509 5.3877 9.6122C5.3877 6.17354 9.74135 3.39062 15.1124 3.39062C20.4835 3.39062 24.8372 6.1767 24.8372 9.6122Z" fill="#00A1ED"/>
<path d="M11.8864 7.64895C11.8813 7.65844 11.7846 7.75899 11.8472 7.83866C12.0018 7.95876 12.1832 8.03974 12.3758 8.07475C12.5685 8.10976 12.7668 8.09775 12.9538 8.03974C13.3256 7.89217 13.6666 7.67642 13.9592 7.4036C14.2974 7.0961 14.6855 6.84848 15.1069 6.67136C15.376 6.57268 15.6701 6.5649 15.9441 6.64923C16.2221 6.75169 16.4803 6.90145 16.7073 7.09187C17.3732 7.59205 20.0486 9.92727 20.5109 10.3313C21.8878 9.73479 23.3197 9.27395 24.7861 8.95537C24.5257 7.67703 23.8026 6.53976 22.7557 5.76143C21.937 6.15859 21.0415 6.37202 20.1317 6.38676C19.222 6.40151 18.32 6.21723 17.4889 5.8468C16.8631 5.56331 16.1864 5.4093 15.4996 5.39404C14.9683 5.3967 14.4444 5.51804 13.9661 5.74921C13.4877 5.98039 13.0671 6.31554 12.735 6.73016L11.8864 7.64895Z" fill="white"/>
<path d="M20.4019 10.5893C20.3703 10.5615 17.256 7.8361 16.5503 7.30557C16.3045 7.08681 16.0013 6.94287 15.6764 6.89075C15.5367 6.87953 15.3961 6.89301 15.261 6.93058C14.8444 7.08761 14.459 7.31734 14.1228 7.60908C13.8026 7.91114 13.4244 8.145 13.0111 8.29643C12.5937 8.38222 12.1594 8.31702 11.7856 8.11243C11.6983 8.05866 11.6279 7.98128 11.5827 7.88922C11.5581 7.8187 11.5549 7.7425 11.5735 7.67017C11.592 7.59784 11.6315 7.5326 11.687 7.48262L12.5464 6.55308C12.6463 6.4538 12.7474 6.35389 12.8499 6.25524C12.5848 6.29527 12.323 6.35422 12.0664 6.43166C11.771 6.52996 11.4636 6.58741 11.1527 6.6024C10.8394 6.57055 10.528 6.52178 10.22 6.45632C9.36664 6.23671 8.53603 5.9367 7.73932 5.5603C6.59223 6.3344 5.77932 7.51268 5.46289 8.85986C5.63868 8.90665 5.92133 8.99075 6.04021 9.01667C8.80543 9.6313 9.66669 10.2649 9.82288 10.3971C9.91477 10.2937 10.0289 10.2124 10.1567 10.1595C10.2845 10.1065 10.4227 10.0833 10.5608 10.0914C10.6989 10.0996 10.8334 10.1389 10.9541 10.2066C11.0748 10.2742 11.1786 10.3683 11.2576 10.4818C11.4442 10.3312 11.6768 10.2493 11.9165 10.2497C12.0512 10.2511 12.1847 10.2746 12.3118 10.3193C12.4353 10.3589 12.5489 10.4246 12.6449 10.5119C12.7409 10.5991 12.817 10.706 12.8682 10.8252C12.9892 10.7705 13.1206 10.7426 13.2533 10.7436C13.4119 10.7456 13.5683 10.78 13.713 10.8448C13.9144 10.9391 14.0778 11.099 14.1765 11.2983C14.2752 11.4976 14.3033 11.7245 14.2562 11.9419C14.2927 11.9378 14.3295 11.9359 14.3662 11.9362C14.6569 11.9365 14.9355 12.0522 15.141 12.2577C15.3464 12.4633 15.4619 12.742 15.4621 13.0327C15.4622 13.2135 15.4172 13.3915 15.3312 13.5506C15.6175 13.7247 15.9479 13.8125 16.2828 13.8035C16.366 13.8031 16.4481 13.7856 16.5243 13.7522C16.6004 13.7188 16.6689 13.6702 16.7255 13.6094C16.7527 13.5701 16.7818 13.5246 16.7552 13.4924L15.9749 12.6254C15.9749 12.6254 15.8484 12.504 15.8889 12.4572C15.9294 12.4104 16.0122 12.4781 16.0685 12.5255C16.4656 12.8569 16.9506 13.3577 16.9506 13.3577C16.9506 13.3577 16.9911 13.4266 17.17 13.4589C17.2772 13.4774 17.387 13.4742 17.4929 13.4495C17.5989 13.4247 17.6987 13.3788 17.7866 13.3147C17.8363 13.2733 17.8817 13.2269 17.9219 13.1762C17.9187 13.1762 17.9162 13.1819 17.913 13.1831C17.9677 13.1076 17.9952 13.0158 17.9912 12.9226C17.9872 12.8294 17.9518 12.7403 17.8909 12.6697L16.9803 11.6466C16.9803 11.6466 16.8501 11.5264 16.8943 11.4777C16.9386 11.429 17.0208 11.4992 17.0752 11.5467C17.3635 11.7876 17.7707 12.1967 18.1615 12.5793C18.2917 12.6674 18.4464 12.7119 18.6034 12.7064C18.7605 12.7009 18.9117 12.6458 19.0354 12.5489C19.1365 12.493 19.2202 12.4103 19.2772 12.3099C19.3342 12.2095 19.3624 12.0952 19.3585 11.9798C19.3394 11.8357 19.2726 11.7022 19.1689 11.6004L17.9244 10.349C17.9244 10.349 17.7929 10.2371 17.839 10.1802C17.8852 10.1233 17.9655 10.201 18.0186 10.2478C18.4151 10.5792 19.4876 11.5631 19.4876 11.5631C19.6141 11.6442 19.7619 11.6859 19.9122 11.6828C20.0625 11.6798 20.2085 11.6322 20.3317 11.546C20.4108 11.4997 20.4773 11.4349 20.5257 11.3571C20.5741 11.2793 20.6028 11.191 20.6093 11.0996C20.6136 11.0046 20.5972 10.9098 20.5614 10.8218C20.5256 10.7337 20.4712 10.6544 20.4019 10.5893Z" fill="white"/>
<path d="M14.3672 12.1752C14.2211 12.1955 14.0769 12.2274 13.936 12.2707C13.9208 12.2606 13.948 12.1835 13.9657 12.1386C13.9834 12.0937 14.2382 11.3298 13.6192 11.0636C13.4808 10.989 13.3221 10.961 13.1666 10.9838C13.0111 11.0066 12.8671 11.0789 12.756 11.1901C12.7301 11.2172 12.7181 11.2153 12.7155 11.1806C12.7114 11.0383 12.6629 10.9009 12.5769 10.7875C12.4908 10.6741 12.3715 10.5905 12.2356 10.5482C12.0425 10.4887 11.8354 10.4932 11.6451 10.561C11.4548 10.6288 11.2916 10.7563 11.1796 10.9245C11.1597 10.7737 11.0895 10.6341 10.9804 10.5282C10.8713 10.4223 10.7297 10.3562 10.5785 10.3407C10.4273 10.3252 10.2752 10.3611 10.1469 10.4426C10.0186 10.5242 9.92148 10.6466 9.87133 10.7901C9.82117 10.9337 9.82088 11.0899 9.87048 11.2336C9.92007 11.3773 10.0167 11.5002 10.1447 11.5822C10.2727 11.6643 10.4246 11.7008 10.5759 11.6858C10.7272 11.6709 10.869 11.6054 10.9785 11.4999C10.9823 11.5037 10.9836 11.51 10.9823 11.5226C10.9365 11.7321 10.9677 11.951 11.0701 12.1394C11.1725 12.3277 11.3394 12.4729 11.54 12.5483C11.6485 12.5901 11.7659 12.6027 11.8808 12.585C11.9956 12.5672 12.1038 12.5197 12.1945 12.4471C12.2483 12.4092 12.2577 12.425 12.2495 12.4756C12.2336 12.6278 12.273 12.7807 12.3605 12.9062C12.4481 13.0317 12.5779 13.1215 12.7263 13.1591C12.843 13.2163 12.975 13.2344 13.1028 13.2107C13.2306 13.187 13.3473 13.1228 13.4358 13.0276C13.499 12.9726 13.5129 12.9815 13.5155 13.0668C13.523 13.2338 13.5795 13.395 13.6778 13.5302C13.7761 13.6654 13.9119 13.7688 14.0684 13.8275C14.225 13.8863 14.3953 13.8977 14.5583 13.8605C14.7213 13.8233 14.8697 13.739 14.9853 13.6182C15.1008 13.4973 15.1783 13.3452 15.2082 13.1807C15.238 13.0162 15.2189 12.8466 15.1533 12.6928C15.0876 12.5391 14.9782 12.408 14.8387 12.3159C14.6992 12.2238 14.5357 12.1746 14.3685 12.1746L14.3672 12.1752Z" fill="white"/>
<path d="M20.5228 10.263C19.5635 9.42583 17.3459 7.49781 16.7452 7.04758C16.5126 6.85177 16.248 6.69755 15.963 6.59168C15.8385 6.55273 15.7089 6.5327 15.5785 6.53224C15.4125 6.53442 15.2479 6.56213 15.0903 6.61443C14.6686 6.78942 14.28 7.03539 13.9414 7.34164L13.9218 7.35681C13.6361 7.62354 13.3036 7.83513 12.941 7.98092C12.8219 8.00771 12.7002 8.02128 12.5781 8.02139C12.4555 8.03168 12.3321 8.0176 12.2149 7.97994C12.0978 7.94228 11.9894 7.8818 11.8958 7.80198C11.8787 7.78048 11.8894 7.74569 11.9293 7.69447L11.9343 7.68814L12.7785 6.77821C13.1054 6.36936 13.5195 6.03879 13.9906 5.81067C14.4617 5.58255 14.9779 5.46266 15.5013 5.45979H15.5734C16.2261 5.48651 16.8676 5.63851 17.4629 5.90749C18.2627 6.30742 19.1435 6.51875 20.0378 6.52528C21.0182 6.50827 21.9831 6.27714 22.8649 5.84805C22.7549 5.7551 22.6405 5.6653 22.5228 5.57741C21.743 5.93434 20.8978 6.12636 20.0403 6.14145C19.2033 6.1348 18.3789 5.93645 17.6304 5.5616C16.9835 5.26618 16.2848 5.10094 15.5741 5.07533H15.4938C14.6376 5.06294 13.8055 5.35849 13.149 5.90813C12.7515 5.92889 12.3584 6.00071 11.9792 6.12185C11.7134 6.21074 11.437 6.2639 11.1572 6.27993C11.0516 6.27993 10.8612 6.27045 10.8442 6.26918C9.83199 6.09076 8.83928 5.81549 7.87976 5.44715C7.75898 5.53251 7.64264 5.6204 7.52945 5.71083C8.56166 6.14212 9.63987 6.45378 10.743 6.63973C10.8752 6.64858 11.0155 6.66312 11.1565 6.66376C11.473 6.64848 11.7859 6.59043 12.0867 6.49114C12.2657 6.44119 12.4661 6.38617 12.671 6.34633L12.5047 6.51137L11.6472 7.43901C11.5821 7.49687 11.5361 7.5731 11.5152 7.65765C11.4943 7.74221 11.4996 7.83112 11.5303 7.91263C11.5795 8.0168 11.6576 8.10461 11.7554 8.16556C12.0327 8.32216 12.3469 8.40185 12.6653 8.39638C12.7873 8.39722 12.9091 8.38449 13.0283 8.35844C13.4512 8.20678 13.8386 7.97005 14.1665 7.66286C14.4972 7.37709 14.8751 7.15093 15.2832 6.99448C15.3847 6.96732 15.4892 6.95288 15.5943 6.95148C15.6214 6.95129 15.6484 6.95298 15.6752 6.95654C15.9894 7.00784 16.2824 7.14756 16.52 7.35933C17.2238 7.88797 20.3387 10.6133 20.3691 10.6399C20.4315 10.6983 20.4807 10.7694 20.5134 10.8483C20.5461 10.9273 20.5616 11.0123 20.5588 11.0977C20.5531 11.1793 20.5275 11.2583 20.4842 11.3276C20.4408 11.397 20.3811 11.4546 20.3103 11.4955C20.1889 11.576 20.0469 11.6199 19.9012 11.6219C19.7734 11.6221 19.6481 11.5859 19.5401 11.5176C19.5287 11.5081 18.4613 10.5292 18.0686 10.2011C18.0195 10.1489 17.9547 10.1143 17.884 10.1024C17.8684 10.1023 17.8529 10.1056 17.8388 10.1123C17.8246 10.119 17.8122 10.1288 17.8024 10.141C17.7392 10.2175 17.81 10.3225 17.8916 10.3939L19.1379 11.6472C19.2308 11.7378 19.2912 11.8565 19.3099 11.9849C19.3131 12.0899 19.2871 12.1938 19.2349 12.285C19.1827 12.3762 19.1062 12.4511 19.014 12.5015C18.8841 12.5929 18.7301 12.6438 18.5714 12.6476C18.4448 12.6475 18.3211 12.6099 18.216 12.5395L18.037 12.3637C17.7107 12.0418 17.3731 11.7098 17.1258 11.5031C17.0759 11.4518 17.0106 11.4181 16.9399 11.4069C16.9252 11.4068 16.9107 11.4097 16.8972 11.4154C16.8837 11.4212 16.8715 11.4297 16.8615 11.4405C16.8337 11.4714 16.8141 11.5277 16.8843 11.6213C16.9035 11.6463 16.9246 11.6698 16.9475 11.6915L17.8575 12.7134C17.9099 12.7728 17.9405 12.8484 17.9442 12.9276C17.9478 13.0069 17.9244 13.085 17.8777 13.149L17.8454 13.1901C17.8189 13.219 17.7906 13.2463 17.7607 13.2717C17.6325 13.3658 17.477 13.4153 17.318 13.4127C17.2767 13.4128 17.2355 13.4092 17.1948 13.402C17.1283 13.3969 17.0653 13.3705 17.0152 13.3267L17.0038 13.3153C16.9545 13.2641 16.4979 12.7962 16.1185 12.4794C16.0714 12.4294 16.0092 12.3961 15.9415 12.3845C15.9259 12.3844 15.9105 12.3876 15.8963 12.3939C15.8822 12.4002 15.8695 12.4096 15.8593 12.4212C15.784 12.5034 15.8972 12.6267 15.9446 12.6741L16.7205 13.5297C16.7136 13.5486 16.7036 13.5661 16.6908 13.5815C16.663 13.6201 16.5687 13.7144 16.2874 13.7491C16.2532 13.7535 16.2187 13.7556 16.1843 13.7554C15.9176 13.7384 15.6583 13.6615 15.4255 13.5303C15.5084 13.354 15.5454 13.1595 15.5332 12.9651C15.521 12.7706 15.4598 12.5823 15.3555 12.4177C15.2511 12.2531 15.1069 12.1176 14.9362 12.0236C14.7655 11.9295 14.5738 11.8802 14.3789 11.8799H14.3372C14.3705 11.6596 14.3312 11.4345 14.2254 11.2384C14.1195 11.0424 13.9528 10.886 13.7504 10.7929C13.5981 10.7248 13.4335 10.6886 13.2667 10.6867C13.1455 10.6858 13.0253 10.7073 12.9119 10.7499C12.7935 10.5204 12.5888 10.3473 12.3428 10.2687C12.2094 10.2212 12.069 10.1964 11.9274 10.1954C11.6952 10.1942 11.4687 10.2668 11.2805 10.4028C11.1949 10.295 11.0875 10.2067 10.9653 10.1434C10.8431 10.0801 10.709 10.0434 10.5716 10.0357C10.4342 10.028 10.2968 10.0495 10.1683 10.0987C10.0398 10.1479 9.92318 10.2237 9.8261 10.3212C9.58454 10.1366 8.62466 9.52826 6.06242 8.94587C5.93595 8.91742 5.65329 8.83584 5.47877 8.78463C5.45052 8.92362 5.42941 9.06398 5.41553 9.20514C5.41553 9.20514 5.88853 9.31833 5.98148 9.3392C8.60126 9.92095 9.46693 10.5261 9.613 10.6405C9.55102 10.7897 9.52679 10.9518 9.54242 11.1125C9.55806 11.2732 9.61307 11.4276 9.70261 11.562C9.79216 11.6964 9.91346 11.8066 10.0558 11.8829C10.1981 11.9592 10.357 11.9992 10.5185 11.9994C10.579 11.9994 10.6393 11.9939 10.6987 11.983C10.7375 12.1774 10.8262 12.3585 10.956 12.5083C11.0858 12.6582 11.2523 12.7718 11.4392 12.8379C11.5506 12.8818 11.6692 12.9047 11.7889 12.9056C11.8644 12.9058 11.9396 12.8964 12.0127 12.8778C12.1027 13.0671 12.2431 13.2279 12.4186 13.3425C12.5941 13.4571 12.7979 13.521 13.0074 13.5272C13.1097 13.5272 13.2111 13.5092 13.3071 13.4741C13.3799 13.6514 13.4957 13.8078 13.6439 13.9292C13.7922 14.0507 13.9684 14.1333 14.1566 14.1697C14.3448 14.2061 14.5391 14.1951 14.7219 14.1376C14.9048 14.0802 15.0705 13.9782 15.2041 13.8408C15.5031 14.0145 15.839 14.1146 16.1843 14.133C16.2339 14.1328 16.2836 14.1296 16.3329 14.1235C16.4604 14.1197 16.5857 14.0887 16.7003 14.0327C16.8149 13.9766 16.9162 13.8968 16.9975 13.7985C17.0129 13.7775 17.0267 13.7552 17.0386 13.7321C17.141 13.7637 17.2475 13.7803 17.3547 13.7814C17.5845 13.7767 17.8065 13.6972 17.9871 13.555C18.1779 13.4298 18.312 13.2348 18.3608 13.0118C18.3608 13.0118 18.3608 13.0068 18.3608 13.0036C18.4305 13.0179 18.5015 13.0251 18.5726 13.0251C18.8052 13.022 19.0316 12.95 19.2233 12.8183C19.3689 12.7337 19.4891 12.6114 19.5713 12.4643C19.6534 12.3173 19.6944 12.1508 19.69 11.9824C19.7605 11.997 19.8323 12.0044 19.9043 12.0045C20.1216 12.0015 20.3333 11.9356 20.5139 11.8148C20.6339 11.7414 20.7348 11.6408 20.8084 11.521C20.882 11.4012 20.9263 11.2657 20.9376 11.1255C20.9523 10.9303 20.9051 10.7354 20.8029 10.5685C22.1119 10.0343 23.4635 9.61123 24.8435 9.30378C24.832 9.16316 24.8133 9.02322 24.7872 8.88455C23.3245 9.20504 21.8963 9.66669 20.5228 10.263ZM14.3669 13.8212C14.1623 13.8225 13.9652 13.744 13.8175 13.6023C13.6698 13.4606 13.5831 13.2669 13.5759 13.0624C13.5759 13.0264 13.5714 12.9296 13.4892 12.9296C13.452 12.9339 13.4178 12.952 13.3931 12.9802C13.3431 13.0337 13.283 13.0767 13.2162 13.1069C13.1495 13.1371 13.0774 13.1537 13.0042 13.156C12.9171 13.1538 12.8313 13.1349 12.7513 13.1003C12.2998 12.9176 12.2935 12.6071 12.3118 12.4825C12.3163 12.4665 12.3171 12.4497 12.3143 12.4333C12.3114 12.4169 12.305 12.4013 12.2954 12.3877L12.2676 12.3624H12.2391C12.2103 12.3644 12.1828 12.3755 12.1607 12.394C12.0505 12.4786 11.9164 12.5261 11.7775 12.53C11.7041 12.5293 11.6314 12.5152 11.5631 12.4882C11.375 12.4179 11.2188 12.2818 11.1234 12.105C11.0281 11.9283 11.0001 11.7229 11.0446 11.5271C11.0477 11.5129 11.047 11.4981 11.0424 11.4843C11.0379 11.4705 11.0297 11.4582 11.0187 11.4487L10.977 11.4139L10.9377 11.4512C10.8379 11.548 10.7082 11.6083 10.5698 11.6222C10.4314 11.6362 10.2924 11.603 10.1751 11.5281C10.0579 11.4532 9.96942 11.341 9.92395 11.2095C9.87849 11.078 9.87872 10.9351 9.92461 10.8038C9.9705 10.6724 10.0594 10.5604 10.1768 10.4859C10.2943 10.4114 10.4334 10.3787 10.5718 10.3931C10.7101 10.4075 10.8396 10.4682 10.9392 10.5653C11.0388 10.6624 11.1026 10.7903 11.1205 10.9283L11.142 11.0939L11.2331 10.9535C11.3357 10.7944 11.4881 10.6737 11.6666 10.6102C11.845 10.5467 12.0394 10.544 12.2195 10.6026C12.3439 10.6417 12.453 10.7187 12.5313 10.823C12.6097 10.9272 12.6535 11.0534 12.6565 11.1837C12.6628 11.264 12.7197 11.2685 12.7317 11.2685C12.7455 11.2675 12.759 11.2636 12.7713 11.2572C12.7836 11.2508 12.7944 11.2419 12.8032 11.2312C12.8621 11.1703 12.9328 11.1221 13.0109 11.0894C13.0891 11.0568 13.1731 11.0405 13.2578 11.0414C13.3753 11.0439 13.491 11.0702 13.598 11.1186C14.1791 11.3677 13.9142 12.1063 13.9142 12.1139C13.8642 12.2366 13.8623 12.2903 13.9091 12.3213L13.9319 12.3321H13.949C13.9877 12.3276 14.0256 12.3176 14.0615 12.3023C14.1605 12.2632 14.2651 12.2401 14.3714 12.234C14.5815 12.234 14.783 12.3175 14.9316 12.4661C15.0802 12.6147 15.1637 12.8162 15.1637 13.0264C15.1637 13.2365 15.0802 13.438 14.9316 13.5866C14.783 13.7352 14.5815 13.8187 14.3714 13.8187L14.3669 13.8212Z" fill="#002F79"/>
</svg>
