<svg width="30" height="20" viewBox="0 0 30 20" fill="none" xmlns="http://www.w3.org/2000/svg">
<rect width="30" height="20" rx="4" fill="#FE5000"/>
<mask id="mask0" mask-type="alpha" maskUnits="userSpaceOnUse" x="7" y="3" width="8" height="13">
<path d="M14.3401 9.1205L11.6634 4.28637C11.5474 4.06817 11.5387 3.84515 11.4943 3.5769V7.74298C11.4946 8.33361 11.3779 8.91844 11.1509 9.46368C11.0374 9.73417 10.8984 9.99325 10.7358 10.2374C10.4037 10.7255 9.98251 11.1467 9.49441 11.4788C9.25112 11.6428 8.9919 11.7819 8.7207 11.8938C8.44814 12.0072 8.16499 12.0932 7.87542 12.1505C7.58709 12.2076 7.29392 12.2367 7 12.2373V15.2223C7.43019 15.2225 7.85957 15.1848 8.28313 15.1096C8.70973 15.0341 9.12896 14.9217 9.53611 14.7737C10.3496 14.4814 11.1047 14.0469 11.7662 13.4906C12.0979 13.2149 12.4059 12.912 12.687 12.585C12.9655 12.2559 13.2155 11.9036 13.4342 11.5321C13.873 10.7866 14.1794 9.97079 14.3398 9.12078" fill="white"/>
</mask>
<g mask="url(#mask0)">
<rect x="7.07666" y="3.52612" width="7.64895" height="11.6328" fill="white"/>
</g>
<path d="M21.5702 16.8677C21.5636 16.9164 21.5496 16.9639 21.5288 17.0086L21.5702 16.8677ZM19.7701 17.9544L19.6797 17.9203L19.7701 17.9544ZM21.4835 17.1393C21.4835 17.1807 21.442 17.2224 21.4156 17.2675L21.4835 17.1393ZM19.4345 17.8186L19.3441 17.7696L19.4345 17.8186ZM19.0682 17.5507L19.0381 17.5166L19.0682 17.5507ZM20.5551 17.9279L20.457 17.9544L20.5551 17.9279ZM21.3324 17.3844L21.2381 17.5013L21.3324 17.3844ZM20.8419 17.8183L20.8983 17.7806L20.7963 17.8369L20.8419 17.8183ZM21.14 17.5994L21.0307 17.6862L21.14 17.5994Z" fill="white"/>
<path d="M11.6642 4.28631L14.3409 9.12044L18.8209 17.2187L18.8511 17.2602C18.7152 17.0333 18.6434 16.7737 18.6434 16.5093V10.7129L14.2905 2.86371C14.1332 2.57296 13.8833 2.34303 13.5805 2.21033C13.2777 2.07764 12.9393 2.04977 12.6188 2.13114C12.2966 2.21099 12.0108 2.39711 11.8074 2.65944C11.632 2.88915 11.5254 3.16392 11.5 3.45181C11.4747 3.7397 11.5315 4.02888 11.664 4.28575L11.6642 4.28631ZM21.6151 16.569C21.6189 16.623 21.6189 16.6773 21.6151 16.7313C21.6189 16.6775 21.6189 16.6234 21.6151 16.5696V16.569Z" fill="white"/>
<path d="M18.8458 17.2562C18.8987 17.3519 18.9634 17.4407 19.0383 17.5204L19.0684 17.5582C19.1526 17.638 19.245 17.7089 19.344 17.7695L19.4344 17.8185C19.5141 17.8603 19.5974 17.8944 19.6835 17.9205L19.7779 17.9546C19.8918 17.9811 20.0081 17.9963 20.125 18C20.2305 17.9988 20.3356 17.9862 20.4383 17.9622L20.5327 17.9358C20.6148 17.9135 20.6944 17.8832 20.7705 17.8453L20.8725 17.785L21.0046 17.6982L21.114 17.6115L21.212 17.5058L21.3064 17.3931L21.3819 17.2722C21.3819 17.2308 21.4309 17.1891 21.4498 17.1477L21.5028 17.0119L21.5442 16.871C21.5441 16.8244 21.5531 16.7783 21.5707 16.7352C21.5745 16.6824 21.5745 16.6294 21.5707 16.5766V3.57679C21.5819 3.37389 21.5515 3.17085 21.4816 2.98008C21.4116 2.7893 21.3035 2.61479 21.1638 2.46722C21.0241 2.31964 20.8558 2.2021 20.6691 2.12176C20.4825 2.04143 20.2814 2 20.0782 2C19.875 2 19.674 2.04143 19.4873 2.12176C19.3007 2.2021 19.1324 2.31964 18.9927 2.46722C18.853 2.61479 18.7449 2.7893 18.6749 2.98008C18.6049 3.17085 18.5746 3.37389 18.5858 3.57679V16.5016C18.6009 16.7725 18.691 17.0338 18.8461 17.2564" fill="white"/>
</svg>
